<svg xmlns="http://www.w3.org/2000/svg" width="354.666" height="264.303" viewBox="0 0 354.666 264.303">
    <rect width="354.666" height="0.177" transform="translate(0 232.268)" fill="#ebebeb"/>
    <rect width="55.263" height="0.177" transform="translate(37.211 239.023)" fill="#ebebeb"/>
    <rect width="26.885" height="0.177" transform="translate(292.245 244.418)" fill="#ebebeb"/>
    <rect width="13.614" height="0.177" transform="translate(93.184 245.61)" fill="#ebebeb"/>
    <rect width="30.638" height="0.177" transform="translate(143.403 237.098)" fill="#ebebeb"/>
    <rect width="4.492" height="0.177" transform="translate(180.357 237.098)" fill="#ebebeb"/>
    <rect width="30.659" height="0.177" transform="translate(232.425 241.423)" fill="#ebebeb"/>
    <path d="M211.459-190.934H74.488a4.054,4.054,0,0,1-4.049-4.049V-387.519a4.053,4.053,0,0,1,4.049-4.048H211.459a4.053,4.053,0,0,1,4.048,4.048v192.536A4.053,4.053,0,0,1,211.459-190.934ZM74.488-391.39a3.876,3.876,0,0,0-3.872,3.871v192.536a3.876,3.876,0,0,0,3.872,3.872H211.459a3.875,3.875,0,0,0,3.871-3.872V-387.519a3.875,3.875,0,0,0-3.871-3.871Z"
          transform="translate(-43.338 391.567)" fill="#ebebeb"/>
    <path d="M427.757-190.934H290.785a4.054,4.054,0,0,1-4.048-4.049V-387.519a4.053,4.053,0,0,1,4.048-4.048H427.757a4.053,4.053,0,0,1,4.049,4.048v192.536A4.054,4.054,0,0,1,427.757-190.934ZM290.785-391.39a3.875,3.875,0,0,0-3.871,3.871v192.536a3.875,3.875,0,0,0,3.871,3.872H427.757a3.876,3.876,0,0,0,3.872-3.872V-387.519a3.875,3.875,0,0,0-3.872-3.871Z"
          transform="translate(-106.209 391.567)" fill="#ebebeb"/>
    <g transform="translate(35.254 30.298)">
        <g transform="translate(0 104.745)">
            <path d="M145.96-113.984H111.109a3.13,3.13,0,0,1-3.1-2.677L99.288-176.3a3.131,3.131,0,0,1,3.1-3.583h34.851a3.13,3.13,0,0,1,3.1,2.677l8.723,59.636A3.13,3.13,0,0,1,145.96-113.984Z"
                  transform="translate(-86.968 194.994)" fill="#f0f0f0"/>
            <path d="M110.22-113.984H93.787a3.13,3.13,0,0,1-3.1-2.677L81.966-176.3a3.13,3.13,0,0,1,3.1-3.583H101.5a3.13,3.13,0,0,1,3.1,2.677l8.723,59.636A3.13,3.13,0,0,1,110.22-113.984Z"
                  transform="translate(-81.933 194.994)" fill="#fafafa"/>
            <path d="M340.419-201.187H171.028c-4.3,0-8.089,3.226-8.457,7.205l-4.263,46.044c-.368,3.979,2.82,7.205,7.122,7.205H334.822c4.3,0,8.088-3.226,8.457-7.205l4.263-46.044C347.91-197.961,344.721-201.187,340.419-201.187Z"
                  transform="translate(-104.124 201.187)" fill="#e0e0e0"/>
            <path d="M324.209-201.187H154.818c-4.3,0-8.089,3.226-8.457,7.205L142.1-147.937c-.368,3.979,2.82,7.205,7.122,7.205H318.612c4.3,0,8.089-3.226,8.457-7.205l4.263-46.044C331.7-197.961,328.511-201.187,324.209-201.187Z"
                  transform="translate(-99.412 201.187)" fill="#e6e6e6"/>
            <rect width="26.6" height="74.007" rx="7.195" transform="translate(108.027 54.409) rotate(90)"
                  fill="#ebebeb"/>
            <rect width="26.6" height="83.802" rx="6.584" transform="translate(210.074 54.409) rotate(90)"
                  fill="#e0e0e0"/>
            <rect width="26.6" height="83.802" rx="6.584" transform="translate(191.828 54.409) rotate(90)"
                  fill="#ebebeb"/>
            <path d="M402.644-113.984H376.718a2.724,2.724,0,0,1-2.64-3.583L390.406-177.2a3.674,3.674,0,0,1,3.438-2.677h25.927a2.724,2.724,0,0,1,2.64,3.583l-16.329,59.636A3.673,3.673,0,0,1,402.644-113.984Z"
                  transform="translate(-166.816 194.994)" fill="#f0f0f0"/>
            <path d="M375.828-113.984H359.4a2.724,2.724,0,0,1-2.639-3.583L373.084-177.2a3.673,3.673,0,0,1,3.438-2.677h16.433a2.724,2.724,0,0,1,2.639,3.583l-16.328,59.636A3.673,3.673,0,0,1,375.828-113.984Z"
                  transform="translate(-161.781 194.994)" fill="#fafafa"/>
            <path d="M360.838-70.766h-2.494l-5.977-16.216h6.178Z" transform="translate(-160.539 167.991)"
                  fill="#e0e0e0"/>
            <path d="M405.457-70.766h-2.494l-5.977-16.216h6.178Z" transform="translate(-173.509 167.991)"
                  fill="#e0e0e0"/>
            <path d="M155.3-70.766H157.8l5.977-16.216H157.6Z" transform="translate(-103.259 167.991)" fill="#e0e0e0"/>
            <path d="M110.686-70.766h2.494l5.977-16.216h-6.178Z" transform="translate(-90.29 167.991)" fill="#e0e0e0"/>
        </g>
        <g transform="translate(45.769)">
            <rect width="189.152" height="67.465" transform="translate(1.734)" fill="#e0e0e0"/>
            <rect width="189.152" height="67.465" fill="#f0f0f0"/>
            <rect width="56.116" height="177.803" transform="translate(183.477 5.675) rotate(90)" fill="#fafafa"/>
            <circle cx="16.827" cy="16.827" r="16.827" transform="translate(77.749 16.906)" fill="#f0f0f0"/>
            <path d="M195.148-284.737l11.784-56.116h26.009l-11.784,56.116Z" transform="translate(-160.61 346.528)"
                  fill="#fff"/>
            <path d="M247.286-284.737l11.784-56.116h13L260.29-284.737Z" transform="translate(-175.765 346.528)"
                  fill="#fff"/>
            <path d="M359.227-284.737l11.784-56.116h13l-11.784,56.116Z" transform="translate(-208.302 346.528)"
                  fill="#fff"/>
        </g>
        <g transform="translate(249.452 102.395)">
            <path d="M471.735-194.758c-4.413,19.125,6.383,38.881,1.969,58.006l-4.37-.182-4.37-.182C472.291-156.119,464.409-175.754,471.735-194.758Z"
                  transform="translate(-442.72 201.668)" fill="#f0f0f0"/>
            <path d="M456.484-183.065c3.616,18.285-7.991,36.57-4.374,54.855h8.748C454.326-146.5,463.016-164.78,456.484-183.065Z"
                  transform="translate(-438.778 198.269)" fill="#f0f0f0"/>
            <path d="M465.718-204.5c-5.785,19.5,4.969,40.544-.816,60.044l-4.753-.444-4.753-.444C464.35-164.547,456.765-185.295,465.718-204.5Z"
                  transform="translate(-439.939 204.499)" fill="#e6e6e6"/>
            <path d="M479.135-164.913c1.866,10.545-8.539,18.836-6.673,29.381l3.526.647,3.526.648C475.3-145.214,483.352-153.937,479.135-164.913Z"
                  transform="translate(-444.834 192.993)" fill="#e6e6e6"/>
            <ellipse cx="23.87" cy="26.725" rx="23.87" ry="26.725" transform="translate(0 51.442)" fill="#e0e0e0"/>
        </g>
    </g>
    <ellipse cx="137.532" cy="8.032" rx="137.532" ry="8.032" transform="translate(39.801 248.239)" fill="#f5f5f5"/>
    <g transform="translate(115.294 51.393)">
        <g transform="translate(0 0)">
            <path d="M352.051-212.9H198.767a2.822,2.822,0,0,1-2.839-3l5.162-93.975a3.223,3.223,0,0,1,3.17-3H357.544a2.822,2.822,0,0,1,2.839,3L355.221-215.9A3.222,3.222,0,0,1,352.051-212.9Z"
                  transform="translate(-195.106 317.303)" fill="#263238"/>
            <path d="M315.57-298.712H300.753a8.431,8.431,0,0,1-8.491-8.97l.151-2.742a9.328,9.328,0,0,1,9.181-8.691H316.4a8.44,8.44,0,0,1,8.5,8.979l-.15,2.732A9.328,9.328,0,0,1,315.57-298.712Z"
                  transform="translate(-223.105 319.114)" fill="#263238"/>
            <path d="M336.841-116.34h-4.747l-13.07-199.823h4.748Z" transform="translate(-230.888 318.256)"
                  fill="#263238"/>
            <path d="M293.906-116.34h4.747l13.069-199.823h-4.747Z" transform="translate(-223.587 318.256)"
                  fill="#263238"/>
            <path d="M350.9-212.9H197.616a2.822,2.822,0,0,1-2.839-3l5.163-93.975a3.222,3.222,0,0,1,3.169-3H356.393a2.822,2.822,0,0,1,2.839,3L354.07-215.9A3.223,3.223,0,0,1,350.9-212.9Z"
                  transform="translate(-194.772 317.303)" fill="#407bff"/>
            <path d="M201.279-214.6a2.25,2.25,0,0,1-2.268-2.4l4.913-89.427a2.569,2.569,0,0,1,2.531-2.4H355.192a2.25,2.25,0,0,1,2.268,2.4L352.547-217a2.568,2.568,0,0,1-2.531,2.4Z"
                  transform="translate(-196.003 316.123)" fill="#263238" opacity="0.4"/>
            <path d="M353.5-260.443H308.729a1.91,1.91,0,0,1-1.927-2.039l2.237-40.705a.27.27,0,0,0-.272-.288.308.308,0,0,0-.3.288l-2.236,40.705a2.181,2.181,0,0,1-2.151,2.039H257.551a1.91,1.91,0,0,1-1.927-2.039l2.236-40.705a.269.269,0,0,0-.272-.288.307.307,0,0,0-.3.288l-2.237,40.705a2.18,2.18,0,0,1-2.15,2.039H208.127a.308.308,0,0,0-.3.288.27.27,0,0,0,.272.288h44.771a1.909,1.909,0,0,1,1.927,2.039l-2.236,40.706a.269.269,0,0,0,.272.288.307.307,0,0,0,.3-.288l2.237-40.706a2.179,2.179,0,0,1,2.15-2.039h46.526a1.909,1.909,0,0,1,1.927,2.039l-2.236,40.706a.269.269,0,0,0,.272.288.308.308,0,0,0,.3-.288l2.236-40.706a2.18,2.18,0,0,1,2.151-2.039h44.771a.308.308,0,0,0,.3-.288A.27.27,0,0,0,353.5-260.443Z"
                  transform="translate(-198.565 314.568)" fill="#fff" opacity="0.1"/>
        </g>
        <g transform="translate(61.939 16.911)">
            <path d="M302.506-293.075H284.522l-1,18.29,17.957.48Z" transform="translate(-282.506 294.634)"
                  fill="#263238" opacity="0.4"/>
            <path d="M300.142-275.73l-18.05-.88a157.975,157.975,0,0,0,1.877-18.663l18.155.879A158.345,158.345,0,0,1,300.142-275.73Z"
                  transform="translate(-282.092 295.273)" fill="#fff"/>
        </g>
        <g transform="translate(84.902 30.011)">
            <path d="M333.471-275.85l-18.006,1.373.395,18.236,18.017-.895Z" transform="translate(-314.756 276.527)"
                  fill="#263238" opacity="0.4"/>
            <path d="M332.6-258.123l-18.14.5a156.036,156.036,0,0,0,.45-18.673l18.245-.513A156.148,156.148,0,0,1,332.6-258.123Z"
                  transform="translate(-314.465 276.805)" fill="#407bff"/>
        </g>
        <g transform="translate(13.056 60.149)">
            <path d="M251.885-229.476l-33.2-1.268-2.979,29.533,33.12,2.043Z" transform="translate(-213.913 233.279)"
                  fill="#263238" opacity="0.4"/>
            <path d="M246.444-201.544l-33.267-2.7a225.458,225.458,0,0,0,4.613-30.076l33.462,2.7A225.962,225.962,0,0,1,246.444-201.544Z"
                  transform="translate(-213.177 234.317)" fill="#fff"/>
        </g>
        <g transform="translate(13.743 18.86)" opacity="0.3" style="mix-blend-mode:multiply;isolation:isolate">
            <path d="M217.814-288.783h0a1.758,1.758,0,0,1-1.769-1.872h0a2.007,2.007,0,0,1,1.974-1.871h0a1.757,1.757,0,0,1,1.769,1.871h0A2.007,2.007,0,0,1,217.814-288.783Z"
                  transform="translate(-214.697 292.526)" fill="#263238"/>
            <path d="M249.73-288.783H226.695a1.758,1.758,0,0,1-1.769-1.872h0a2.008,2.008,0,0,1,1.975-1.871h23.035a1.758,1.758,0,0,1,1.769,1.871h0A2.007,2.007,0,0,1,249.73-288.783Z"
                  transform="translate(-217.279 292.526)" fill="#263238" opacity="0.8"/>
            <path d="M217.182-277.276h0a1.758,1.758,0,0,1-1.769-1.872h0a2.007,2.007,0,0,1,1.974-1.871h0a1.757,1.757,0,0,1,1.769,1.871h0A2.008,2.008,0,0,1,217.182-277.276Z"
                  transform="translate(-214.513 289.181)" fill="#263238"/>
            <path d="M253.177-277.276H226.063a1.758,1.758,0,0,1-1.768-1.872h0a2.007,2.007,0,0,1,1.974-1.871h27.114a1.757,1.757,0,0,1,1.768,1.871h0A2.007,2.007,0,0,1,253.177-277.276Z"
                  transform="translate(-217.095 289.181)" fill="#263238" opacity="0.8"/>
            <path d="M216.549-265.77h0a1.757,1.757,0,0,1-1.768-1.871h0a2.007,2.007,0,0,1,1.974-1.872h0a1.758,1.758,0,0,1,1.769,1.872h0A2.007,2.007,0,0,1,216.549-265.77Z"
                  transform="translate(-214.33 285.837)" fill="#263238"/>
            <path d="M238.628-265.77h-13.2a1.758,1.758,0,0,1-1.769-1.871h0a2.008,2.008,0,0,1,1.975-1.872h13.2a1.758,1.758,0,0,1,1.769,1.872h0A2.008,2.008,0,0,1,238.628-265.77Z"
                  transform="translate(-216.911 285.837)" fill="#263238" opacity="0.8"/>
            <path d="M255.857-254.263h-13.2a1.758,1.758,0,0,1-1.769-1.872h0a2.007,2.007,0,0,1,1.975-1.871h13.2a1.757,1.757,0,0,1,1.768,1.871h0A2.007,2.007,0,0,1,255.857-254.263Z"
                  transform="translate(-221.919 282.492)" fill="#263238" opacity="0.8"/>
            <path d="M215.917-254.263h0a1.757,1.757,0,0,1-1.768-1.872h0a2.007,2.007,0,0,1,1.974-1.871h0a1.758,1.758,0,0,1,1.769,1.871h0A2.007,2.007,0,0,1,215.917-254.263Z"
                  transform="translate(-214.146 282.492)" fill="#263238"/>
            <path d="M230.894-254.263H224.8a1.758,1.758,0,0,1-1.769-1.872h0A2.008,2.008,0,0,1,225-258.006H231.1a1.757,1.757,0,0,1,1.768,1.871h0A2.007,2.007,0,0,1,230.894-254.263Z"
                  transform="translate(-216.727 282.492)" fill="#263238" opacity="0.8"/>
        </g>
        <g transform="translate(57.416 62.45)">
            <path d="M293.214-218.489h-8.932l-1.228,22.35h8.932Z" transform="translate(-277.848 227.416)"
                  fill="#407bff"/>
            <path d="M312.418-211.994h-8.932l-.975,17.743h8.932Z" transform="translate(-283.504 225.528)"
                  fill="#407bff"/>
            <path d="M332.529-228.772H323.6l-1.628,29.644H330.9Z" transform="translate(-289.159 230.405)"
                  fill="#407bff"/>
            <path d="M284.137-207.962q-1.327,0-2.678-.07a15.163,15.163,0,0,1-5.4-1.1.575.575,0,0,1-.289-.761.575.575,0,0,1,.761-.289,14.111,14.111,0,0,0,4.99,1c10.717.551,20.1-2.24,29.548-8.784a32.871,32.871,0,0,0,7.68-7.445.576.576,0,0,1,.8-.148.576.576,0,0,1,.148.8,33.587,33.587,0,0,1-7.972,7.739C302.849-210.873,294.019-207.962,284.137-207.962Z"
                  transform="translate(-275.715 229.5)" fill="#fff"/>
            <path d="M336.327-222.572a.57.57,0,0,1-.219-.044.576.576,0,0,1-.313-.752,10.126,10.126,0,0,0,.5-6.2,38.886,38.886,0,0,1-7.135,3.788.576.576,0,0,1-.75-.318.576.576,0,0,1,.319-.75,37.694,37.694,0,0,0,7.566-4.117.575.575,0,0,1,.51-.076.574.574,0,0,1,.367.363,11.209,11.209,0,0,1-.307,7.754A.576.576,0,0,1,336.327-222.572Z"
                  transform="translate(-291.018 231.074)" fill="#fff"/>
        </g>
        <g transform="translate(114.528 16.623)">
            <path d="M391.463-263.384H358.236a1.991,1.991,0,0,1-1.462-.621,1.994,1.994,0,0,1-.541-1.5l1.543-28.09a2.233,2.233,0,0,1,2.2-2.086h33.228a1.988,1.988,0,0,1,1.461.621,1.991,1.991,0,0,1,.54,1.5l-1.543,28.09A2.235,2.235,0,0,1,391.463-263.384ZM359.978-295.1a1.651,1.651,0,0,0-1.626,1.542l-1.543,28.09a1.429,1.429,0,0,0,.383,1.07,1.422,1.422,0,0,0,1.044.44h33.227a1.65,1.65,0,0,0,1.626-1.542l1.544-28.09a1.425,1.425,0,0,0-.384-1.07,1.418,1.418,0,0,0-1.043-.441Z"
                  transform="translate(-356.23 295.679)" fill="#407bff"/>
            <path d="M395.115-284.553H358.259a.288.288,0,0,1-.288-.288.288.288,0,0,1,.288-.288h36.856a.288.288,0,0,1,.288.288A.288.288,0,0,1,395.115-284.553Z"
                  transform="translate(-356.736 292.612)" fill="#407bff"/>
            <path d="M368.651-260.318h-.016a.288.288,0,0,1-.272-.3l1.331-24.234a.284.284,0,0,1,.3-.272.287.287,0,0,1,.272.3l-1.331,24.235A.288.288,0,0,1,368.651-260.318Z"
                  transform="translate(-359.757 292.612)" fill="#407bff"/>
            <g transform="translate(12.874 10.363)">
                <path d="M396.068-280.494h-20.01a.288.288,0,0,1-.287-.288.288.288,0,0,1,.287-.288h20.01a.288.288,0,0,1,.288.288A.288.288,0,0,1,396.068-280.494Z"
                      transform="translate(-374.784 281.07)" fill="#407bff"/>
                <path d="M392.973-275.512H375.784a.288.288,0,0,1-.288-.288.288.288,0,0,1,.288-.288h17.189a.288.288,0,0,1,.288.288A.288.288,0,0,1,392.973-275.512Z"
                      transform="translate(-374.704 279.622)" fill="#407bff"/>
                <path d="M385.506-270.371H375.5a.288.288,0,0,1-.288-.288.288.288,0,0,1,.288-.288h10.005a.288.288,0,0,1,.288.288A.288.288,0,0,1,385.506-270.371Z"
                      transform="translate(-374.622 278.128)" fill="#407bff"/>
                <path d="M387.164-260.338H374.95a.288.288,0,0,1-.287-.288.287.287,0,0,1,.287-.288h12.214a.287.287,0,0,1,.287.288A.288.288,0,0,1,387.164-260.338Z"
                      transform="translate(-374.462 275.211)" fill="#407bff"/>
                <path d="M384.673-255.2H374.668a.287.287,0,0,1-.288-.288.288.288,0,0,1,.288-.288h10.005a.288.288,0,0,1,.287.288A.287.287,0,0,1,384.673-255.2Z"
                      transform="translate(-374.38 273.717)" fill="#407bff"/>
                <path d="M395.715-255.2H392.51a.288.288,0,0,1-.288-.288.288.288,0,0,1,.288-.288h3.205a.288.288,0,0,1,.288.288A.287.287,0,0,1,395.715-255.2Z"
                      transform="translate(-379.566 273.717)" fill="#407bff"/>
                <path d="M393.964-265.39H375.228a.288.288,0,0,1-.288-.288.288.288,0,0,1,.288-.288h18.736a.288.288,0,0,1,.288.288A.288.288,0,0,1,393.964-265.39Z"
                      transform="translate(-374.543 276.68)" fill="#407bff"/>
            </g>
        </g>
        <path d="M371.814-203.852c-4.341,0-7.9-1.283-10.107-3.669-2.358-2.547-3.337-6.554-2.684-10.991a14.545,14.545,0,0,1,2.64-6.779,14.633,14.633,0,0,1,5.836-4.377,20.307,20.307,0,0,1,17.184.232c2.335,1.171,3.8,2.652,4.35,4.4a.576.576,0,0,1-.377.722.576.576,0,0,1-.722-.377c-.454-1.442-1.722-2.694-3.767-3.72a19.146,19.146,0,0,0-16.2-.209,13.5,13.5,0,0,0-5.387,4.023,13.41,13.41,0,0,0-2.418,6.249c-.6,4.091.27,7.751,2.39,10.041,2.947,3.183,7.827,3.411,10.473,3.266,4.92-.272,9.153-1.991,11.918-4.839,3.235-3.33,4.142-8.313,2.11-11.589a3.627,3.627,0,0,0-2.485-1.842.575.575,0,0,1-.516-.63.578.578,0,0,1,.63-.516,4.609,4.609,0,0,1,3.349,2.381c2.3,3.712,1.33,9.3-2.261,13-2.969,3.056-7.471,4.9-12.681,5.186Q372.442-203.852,371.814-203.852Z"
              transform="translate(-242.457 293.636)" fill="#fff"/>
    </g>
    <g transform="translate(67.633 41.212)">
        <path d="M162.762-278.888l-2.046,3.565-2,3.64c-1.321,2.432-2.582,4.884-3.733,7.349-.572,1.236-1.119,2.465-1.616,3.7l-.093.224a.3.3,0,0,1-.03.052.486.486,0,0,0-.06.1,1.333,1.333,0,0,0-.1.2,1.416,1.416,0,0,0,.085.794,7.878,7.878,0,0,0,1.709,2.591,30.815,30.815,0,0,0,2.77,2.625l-1.663,3.542a17.469,17.469,0,0,1-2.293-.81,17.8,17.8,0,0,1-2.166-1.111,12.28,12.28,0,0,1-4-3.708,8.269,8.269,0,0,1-1.251-3.236,7.389,7.389,0,0,1-.038-1.927,6.6,6.6,0,0,1,.163-.946l.116-.462.088-.279c.455-1.451.928-2.886,1.481-4.27,1.078-2.785,2.293-5.475,3.618-8.093.662-1.311,1.348-2.605,2.071-3.88s1.435-2.525,2.267-3.821Z"
              transform="translate(-132.991 318.811)" fill="#e6bbbc"/>
        <path d="M159.52-243.121l3.728-.969.214,6.017s-2.915.433-4.7-1.35Z" transform="translate(-136.643 307.488)"
              fill="#e6bbbc"/>
        <path d="M170.367-245.52l-.841,5.283-4.227,1.749-.214-6.017Z" transform="translate(-138.482 307.904)"
              fill="#e6bbbc"/>
        <path d="M194.257-317.511c.084.411.37.7.639.646s.419-.433.336-.845-.37-.7-.639-.646S194.173-317.923,194.257-317.511Z"
              transform="translate(-146.954 329.077)" fill="#263238"/>
        <path d="M194.734-316.163a15.043,15.043,0,0,0,2.683,3.123,2.423,2.423,0,0,1-1.892.769Z"
              transform="translate(-147.1 328.437)" fill="#d57f7f"/>
        <path d="M191.383-320.466a.245.245,0,0,1-.167-.065.247.247,0,0,1-.013-.349,2.445,2.445,0,0,1,2.1-.816.247.247,0,0,1,.2.284.249.249,0,0,1-.284.2h0a1.961,1.961,0,0,0-1.656.665A.242.242,0,0,1,191.383-320.466Z"
              transform="translate(-146.054 330.051)" fill="#263238"/>
        <path d="M177.243-308.995c.748,3.812,1.494,10.8-1.174,13.341,0,0,1.043,3.867,8.126,3.867,7.789,0,3.723-3.867,3.723-3.867-4.251-1.015-4.142-4.169-3.4-7.131Z"
              transform="translate(-141.674 326.354)" fill="#e6bbbc"/>
        <path d="M173.631-290.582c-.57-1.06-1.2-2.272.1-2.652,1.427-.418,10.595-1.192,13.288-.408-.828,1.472.573,3.281.573,3.281Z"
              transform="translate(-140.773 321.989)" fill="#263238"/>
        <path d="M140.81-39.09a1.68,1.68,0,0,0,1.3-.072.5.5,0,0,0,.12-.573.572.572,0,0,0-.318-.363c-.7-.336-2.321.323-2.39.351a.123.123,0,0,0-.076.111.124.124,0,0,0,.07.115A6.627,6.627,0,0,0,140.81-39.09Zm.848-.833a.693.693,0,0,1,.145.048.331.331,0,0,1,.187.211c.066.222-.016.292-.043.315-.28.238-1.32.018-2.054-.275A4.066,4.066,0,0,1,141.659-39.924Z"
              transform="translate(-131.029 248.222)" fill="#407bff"/>
        <path d="M139.541-40.093a.127.127,0,0,0,.061,0c.589-.172,1.849-1.068,1.865-1.658a.4.4,0,0,0-.316-.4.674.674,0,0,0-.547.044c-.7.355-1.136,1.8-1.155,1.86a.124.124,0,0,0,.031.123A.129.129,0,0,0,139.541-40.093Zm1.475-1.842a.515.515,0,0,1,.054.016c.153.053.151.128.15.16-.009.35-.84,1.052-1.451,1.336a2.969,2.969,0,0,1,.948-1.465A.434.434,0,0,1,141.016-41.935Z"
              transform="translate(-131.029 248.803)" fill="#407bff"/>
        <path d="M194.913-37.92c.669,0,1.315-.092,1.531-.392a.468.468,0,0,0-.011-.54.613.613,0,0,0-.391-.289c-.868-.236-2.688.8-2.766.846a.123.123,0,0,0-.06.127.124.124,0,0,0,.1.1A9.168,9.168,0,0,0,194.913-37.92Zm.826-1.011a.928.928,0,0,1,.239.028.371.371,0,0,1,.241.173c.087.153.056.229.024.272-.243.337-1.56.345-2.528.208A5.571,5.571,0,0,1,195.74-38.931Z"
              transform="translate(-146.658 247.926)" fill="#407bff"/>
        <path d="M193.339-38.576a.126.126,0,0,0,.05-.011c.629-.282,1.875-1.409,1.78-2-.023-.138-.121-.31-.46-.345a.9.9,0,0,0-.685.212,3.524,3.524,0,0,0-.809,2.007.124.124,0,0,0,.05.112A.128.128,0,0,0,193.339-38.576Zm1.271-2.112c.025,0,.05,0,.074,0,.222.023.236.11.24.139.057.353-.789,1.239-1.431,1.625a2.9,2.9,0,0,1,.687-1.607A.656.656,0,0,1,194.611-40.688Z"
              transform="translate(-146.659 248.438)" fill="#407bff"/>
        <path d="M185.312-42.728h5.211l.519-12.068h-5.211Z" transform="translate(-144.361 252.466)" fill="#e6bbbc"/>
        <path d="M131.392-45.79l5.093,1.1,5.113-11.24-5.093-1.1Z" transform="translate(-128.688 253.116)"
              fill="#e6bbbc"/>
        <path d="M135.867-40.862,130.145-42.1a.456.456,0,0,0-.509.254l-1.986,4.309a.767.767,0,0,0,.55,1.068c2.005.4,3,.491,5.517,1.036,1.548.336,5.043,1.187,7.181,1.649,2.09.453,2.874-1.59,2.041-1.971-3.738-1.708-5.3-3.212-6.312-4.614A1.263,1.263,0,0,0,135.867-40.862Z"
              transform="translate(-127.58 248.779)" fill="#263238"/>
        <path d="M189.667-38.634h-5.691a.454.454,0,0,0-.443.356l-1.03,4.632a.758.758,0,0,0,.75.927c2.053-.035,5.019-.155,7.6-.155,3.017,0,5.622.165,9.16.165,2.139,0,2.733-2.163,1.837-2.359-4.077-.892-7.4-.987-10.928-3.159A2.408,2.408,0,0,0,189.667-38.634Z"
              transform="translate(-143.539 247.769)" fill="#263238"/>
        <g transform="translate(16.154 31.738)">
            <path d="M159.265-288.583C154.38-287.464,150.354-275,150.354-275l9.807,7.476a21.4,21.4,0,0,0,5.2-9.631C167.042-283.686,164.258-289.728,159.265-288.583Z"
                  transform="translate(-150.354 288.724)" fill="#f0c92f"/>
            <path d="M159.265-288.583C154.38-287.464,150.354-275,150.354-275l9.807,7.476a21.4,21.4,0,0,0,5.2-9.631C167.042-283.686,164.258-289.728,159.265-288.583Z"
                  transform="translate(-150.354 288.724)" fill="#f0c92f" opacity="0.2"/>
        </g>
        <path d="M167.291-275.6c-2.653,2.625-3.518,7.405-3.724,11.562l.433.333a21.423,21.423,0,0,0,5.206-9.633c.1-.39.184-.78.255-1.163Z"
              transform="translate(-138.041 316.647)" opacity="0.2"/>
        <g transform="translate(25.065 30.526)">
            <path d="M192.11-288.812s5.546,6.265.308,45.041H164.546c-.192-4.279,2.5-25.15-1.63-45.309a72.645,72.645,0,0,1,9.33-1.178,102.465,102.465,0,0,1,11.849,0A52.307,52.307,0,0,1,192.11-288.812Z"
                  transform="translate(-162.916 290.432)" fill="#e8b52b"/>
            <path d="M192.11-288.812s5.546,6.265.308,45.041H164.546c-.192-4.279,2.5-25.15-1.63-45.309a72.645,72.645,0,0,1,9.33-1.178,102.465,102.465,0,0,1,11.849,0A52.307,52.307,0,0,1,192.11-288.812Z"
                  transform="translate(-162.916 290.432)" fill="#e8b52b" opacity="0.2"/>
        </g>
        <path d="M204.859-271.478l-.106-.092-6.334,1.518c-.362,4.284,4.043,9.406,6.313,11.747A121.614,121.614,0,0,0,204.859-271.478Z"
              transform="translate(-148.165 315.476)" opacity="0.2"/>
        <g transform="translate(5.176 196.089)">
            <path d="M191.143-54.791l-.267,6.22h-5.213l.267-6.22Z" transform="translate(-149.639 56.376)"
                  opacity="0.2"/>
            <path d="M137.516-57.026l5.1,1.1-2.638,5.793-5.1-1.1Z" transform="translate(-134.878 57.026)"
                  opacity="0.2"/>
        </g>
        <path d="M174.545-318.13c1.339,5,1.868,7.987,4.951,10.065,4.637,3.124,10.41-.462,10.591-5.756.162-4.766-2.054-12.135-7.415-13.141A7.053,7.053,0,0,0,174.545-318.13Z"
              transform="translate(-141.158 331.614)" fill="#e6bbbc"/>
        <path d="M174.518-311.684c2.124,1.215,9.868-2.847,8.278-9,0,0,2.949-3.547,2.616-7.462s-3.02-5.407-5.878-4.567c-2.52.74-2.446,2.12-2.446,2.12s-11.908,1.4-9.367,6.242C162.873-319.07,171.868-313.2,174.518-311.684Z"
              transform="translate(-138.838 333.315)" fill="#263238"/>
        <path d="M167.34-320.881s-1.419-2.455-3.488-1.081A5.307,5.307,0,0,1,167.34-320.881Z"
              transform="translate(-138.123 330.244)" fill="#263238"/>
        <path d="M192.11-325.723s2.6-5.858-1.451-7.745A10.019,10.019,0,0,1,192.11-325.723Z"
              transform="translate(-145.915 333.467)" fill="#263238"/>
        <path d="M186.593-315.172a5.844,5.844,0,0,0,2.1,3.11c1.356,1.009,2.368.016,2.272-1.519-.087-1.381-.9-3.571-2.393-3.98C187.1-317.964,186.2-316.67,186.593-315.172Z"
              transform="translate(-144.707 328.865)" fill="#e6bbbc"/>
        <path d="M173.724-224.65s-5.914,39.823-9.16,54.743c-3.555,16.337-22.619,70.391-22.619,70.391l-9.328-2.019s13.33-44.05,16.315-66.891c2.292-17.545,6.808-56.224,6.808-56.224Z"
              transform="translate(-129.044 301.837)" fill="#446fb2"/>
        <path d="M143.9-53.471c.04.009-1.739,3.374-1.739,3.374l-10.5-2.273.885-3.155Z"
              transform="translate(-128.769 252.678)" fill="#407bff"/>
        <path d="M182.921-204.669c-6.838,1.341-6.114,26.841-5.292,39.957,1.972-9.271,4.859-27.111,6.831-39.772A2.336,2.336,0,0,0,182.921-204.669Z"
              transform="translate(-141.978 296.045)" opacity="0.3"/>
        <path d="M197-224.65s.718,38.962.151,54.852c-.589,16.53-6.363,70.65-6.363,70.65H181.96s-.324-53.155-.717-69.388c-.428-17.7-2.564-56.114-2.564-56.114Z"
              transform="translate(-142.433 301.837)" fill="#446fb2"/>
        <path d="M265.815-263.374H247.832l-1,18.29,17.957.48Z" transform="translate(-162.241 313.093)" fill="#263238"
              opacity="0.4"/>
        <path d="M252.89-255.233l-18.011-2.222a155.941,155.941,0,0,0,3.247-18.394l18.116,2.23A156.283,156.283,0,0,1,252.89-255.233Z"
              transform="translate(-158.769 316.72)" fill="#407bff"/>
        <path d="M193.422-52.677c.04,0-.5,3.665-.5,3.665H182.185l-.29-3.271Z" transform="translate(-143.368 251.851)"
              fill="#407bff"/>
        <path d="M204.912-281.446c.8,1.248,1.714,2.649,2.626,3.943.93,1.307,1.858,2.612,2.837,3.867a53.051,53.051,0,0,0,6.209,6.929c.548.507,1.109.977,1.676,1.41l.426.321a1.263,1.263,0,0,0-.25-.086c-.184-.035-.275,0-.226.022a2.372,2.372,0,0,0,1.168-.268,13.7,13.7,0,0,0,1.793-.931,62.2,62.2,0,0,0,7.493-5.807l3.044,2.459a36.138,36.138,0,0,1-6.822,8.323,16.692,16.692,0,0,1-2.438,1.794,9.511,9.511,0,0,1-3.579,1.329,6.3,6.3,0,0,1-2.712-.23,6.14,6.14,0,0,1-1.378-.636l-.615-.39q-1.217-.788-2.318-1.658a51.45,51.45,0,0,1-7.64-7.669c-1.112-1.375-2.189-2.766-3.188-4.211-1.011-1.46-1.96-2.856-2.9-4.482Z"
              transform="translate(-148.083 318.346)" fill="#e6bbbc"/>
        <g transform="translate(46.441 31.94)">
            <path d="M193.2-280.351c-1.667,6.987,10.974,13.828,10.974,13.828l8.211-9.62A68.218,68.218,0,0,0,204-286.27C198.256-291.784,194.472-285.668,193.2-280.351Z"
                  transform="translate(-193.051 288.439)" fill="#f0c92f"/>
            <path d="M193.2-280.351c-1.667,6.987,10.974,13.828,10.974,13.828l8.211-9.62A68.218,68.218,0,0,0,204-286.27C198.256-291.784,194.472-285.668,193.2-280.351Z"
                  transform="translate(-193.051 288.439)" fill="#f0c92f" opacity="0.2"/>
        </g>
        <path d="M240.016-268.694l1.938-6.223,5.1,2.541s-.743,4.54-4.456,5.328Z" transform="translate(-160.262 316.448)"
              fill="#e6bbbc"/>
        <path d="M244.793-277.349l4.6,1.266-1.545,3-5.1-2.541Z" transform="translate(-161.056 317.155)" fill="#e6bbbc"/>
    </g>
</svg>
