<svg xmlns="http://www.w3.org/2000/svg" width="310" height="240" viewBox="0 0 310 240"><rect width="310" height="202.266" rx="3.955" fill="#b5e2fb"/><rect width="310" height="37.734" transform="translate(0 202.266)" fill="#fb9d2c"/><g transform="translate(15.724 29.405)"><rect width="5.183" height="58.984" fill="#003484"/><rect width="5.182" height="58.984" transform="translate(45.201)" fill="#003484"/><rect width="5.182" height="58.984" transform="translate(91.123)" fill="#003484"/><rect width="2.517" height="53.592" transform="translate(8.497 0.261)" fill="#003484"/><rect width="2.517" height="53.592" transform="translate(29.081 0.261)" fill="#003484"/><rect width="1.291" height="53.592" transform="translate(24.235 0.261)" fill="#003484"/><rect width="3.118" height="53.592" transform="translate(35.414 0.261)" fill="#003484"/><rect width="1.291" height="53.592" transform="translate(41.617 0.261)" fill="#003484"/><rect width="1.291" height="53.592" transform="translate(13.584 0.261)" fill="#003484"/><rect width="3.516" height="53.592" transform="translate(17.606 0.261)" fill="#003484"/><rect width="2.517" height="53.592" transform="translate(86.953 53.853) rotate(180)" fill="#003484"/><rect width="2.517" height="53.592" transform="translate(66.606 53.853) rotate(180)" fill="#003484"/><rect width="1.292" height="53.592" transform="translate(71.387 53.853) rotate(180)" fill="#003484"/><rect width="3.118" height="53.592" transform="translate(60.353 53.853) rotate(180)" fill="#003484"/><rect width="1.29" height="53.592" transform="translate(54.816 53.853) rotate(180)" fill="#003484"/><rect width="1.29" height="53.592" transform="translate(81.915 53.853) rotate(180)" fill="#003484"/><rect width="3.516" height="53.592" transform="translate(77.958 53.853) rotate(180)" fill="#003484"/><rect width="5.182" height="58.984" transform="translate(135.8)" fill="#003484"/><rect width="5.182" height="58.984" transform="translate(182.246)" fill="#003484"/><rect width="2.517" height="53.592" transform="translate(99.533 0.261)" fill="#003484"/><rect width="2.517" height="53.592" transform="translate(119.88 0.261)" fill="#003484"/><rect width="1.291" height="53.592" transform="translate(115.096 0.261)" fill="#003484"/><rect width="3.118" height="53.592" transform="translate(126.137 0.261)" fill="#003484"/><rect width="1.291" height="53.592" transform="translate(132.278 0.261)" fill="#003484"/><rect width="1.291" height="53.592" transform="translate(104.566 0.261)" fill="#003484"/><rect width="3.516" height="53.592" transform="translate(108.532 0.261)" fill="#003484"/><rect width="2.517" height="53.592" transform="translate(178.087 53.853) rotate(180)" fill="#003484"/><rect width="2.517" height="53.592" transform="translate(157.739 53.853) rotate(180)" fill="#003484"/><rect width="1.292" height="53.592" transform="translate(162.525 53.853) rotate(180)" fill="#003484"/><rect width="3.118" height="53.592" transform="translate(151.483 53.853) rotate(180)" fill="#003484"/><rect width="1.29" height="53.592" transform="translate(145.341 53.853) rotate(180)" fill="#003484"/><rect width="1.29" height="53.592" transform="translate(173.053 53.853) rotate(180)" fill="#003484"/><rect width="3.516" height="53.592" transform="translate(169.087 53.853) rotate(180)" fill="#003484"/><rect width="5.182" height="58.984" transform="translate(226.377)" fill="#003484"/><rect width="5.182" height="58.984" transform="translate(273.369)" fill="#003484"/><rect width="2.517" height="53.592" transform="translate(190.666 0.261)" fill="#003484"/><rect width="2.517" height="53.592" transform="translate(211.013 0.261)" fill="#003484"/><rect width="1.291" height="53.592" transform="translate(206.234 0.261)" fill="#003484"/><rect width="3.118" height="53.592" transform="translate(217.268 0.261)" fill="#003484"/><rect width="1.291" height="53.592" transform="translate(222.793 0.261)" fill="#003484"/><rect width="1.291" height="53.592" transform="translate(195.704 0.261)" fill="#003484"/><rect width="3.516" height="53.592" transform="translate(199.662 0.261)" fill="#003484"/><rect width="2.517" height="53.592" transform="translate(269.111 53.853) rotate(180)" fill="#003484"/><rect width="2.517" height="53.592" transform="translate(248.528 53.853) rotate(180)" fill="#003484"/><rect width="1.292" height="53.592" transform="translate(253.374 53.853) rotate(180)" fill="#003484"/><rect width="3.118" height="53.592" transform="translate(242.196 53.853) rotate(180)" fill="#003484"/><rect width="1.29" height="53.592" transform="translate(235.992 53.853) rotate(180)" fill="#003484"/><rect width="1.29" height="53.592" transform="translate(264.025 53.853) rotate(180)" fill="#003484"/><rect width="3.516" height="53.592" transform="translate(260.003 53.853) rotate(180)" fill="#003484"/></g><g transform="translate(0.485 71.242)"><g transform="translate(6.4 167.616)"><path d="M329.6,576.474c0,.068-45.372.122-101.327.122-55.974,0-101.336-.054-101.336-.122s45.362-.122,101.336-.122C284.227,576.352,329.6,576.406,329.6,576.474Z" transform="translate(-126.935 -576.352)" fill="#1c262b"/></g><g transform="translate(0 31.693)"><g transform="translate(32.609)"><path d="M160.935,462.539A29.255,29.255,0,0,1,163.2,428.5c2.467-2.867,5.913-5.358,9.673-5.035,3.849.331,6.951,3.644,8.123,7.339s.765,7.7.077,11.515c-.964,5.342-2.577,10.809-6.27,14.776s-9.118,8.044-13.866,5.442" transform="translate(-156.525 -423.439)" fill="#f68700"/></g><g transform="translate(39.577 69.07)"><path d="M165.513,520.325A15.3,15.3,0,0,1,169.752,503c1.53-1.252,3.53-2.223,5.438-1.715a5.3,5.3,0,0,1,3.522,4.52,12.6,12.6,0,0,1-1,5.94c-.979,2.665-2.3,5.334-4.565,7.043s-5.424,3.316-7.635,1.542" transform="translate(-164.393 -501.143)" fill="#f68700"/></g><g transform="translate(1.667 59.965)"><path d="M144.579,515.682a22.112,22.112,0,0,0-11.092-23.306c-2.535-1.323-5.654-2.107-8.209-.822-2.616,1.315-3.872,4.517-3.665,7.445s1.61,5.63,3.159,8.121c2.168,3.487,4.829,6.879,8.534,8.632s8.66,3.1,11.272-.07" transform="translate(-121.591 -490.9)" fill="#f68700"/></g><g transform="translate(0 29.139)"><path d="M145.516,487.348c3.185-10.316-2.215-22.823-11.216-28.741-2.794-1.837-6.331-3.116-9.453-1.923-3.2,1.221-5.032,4.8-5.133,8.229s1.216,6.739,2.727,9.818c2.115,4.311,4.814,8.569,8.918,11.044s10.748,4.948,14.156,1.573" transform="translate(-119.709 -456.221)" fill="#f68700"/></g><g transform="translate(9.231 67.728)"><path d="M153.1,542.591a2.248,2.248,0,0,1-.1-.5c-.056-.375-.126-.852-.213-1.439q-.066-.476-.144-1.039l-.236-1.228c-.167-.88-.34-1.885-.627-2.976q-.2-.824-.415-1.72-.259-.887-.538-1.84c-.343-1.281-.849-2.6-1.324-4.016A70.442,70.442,0,0,0,140.4,510.8c-.91-1.177-1.729-2.332-2.6-3.327l-1.231-1.467-1.2-1.3c-.748-.844-1.486-1.543-2.125-2.17l-.888-.875-.784-.7L130.489,500a2.211,2.211,0,0,1-.357-.364,2.233,2.233,0,0,1,.413.3l1.132.914.812.669.917.852c.657.612,1.415,1.3,2.181,2.134l1.226,1.285,1.257,1.459c.891.991,1.726,2.144,2.65,3.323a67.409,67.409,0,0,1,9.162,17.131c.468,1.424.964,2.76,1.293,4.052q.268.961.516,1.858.2.9.39,1.736c.269,1.1.423,2.115.567,3,.072.44.139.853.2,1.237q.058.568.107,1.049c.054.592.1,1.073.133,1.452A2.211,2.211,0,0,1,153.1,542.591Z" transform="translate(-130.131 -499.633)" fill="#1c262b"/></g><g transform="translate(10.233 38.975)"><path d="M153,540.851a.751.751,0,0,1,0-.206c.012-.161.026-.357.043-.6.051-.559.122-1.324.211-2.292q.074-.751.163-1.654c.045-.605.062-1.267.1-1.974.053-1.418.188-3.029.138-4.815q-.007-1.34-.013-2.8c-.01-.974-.1-1.985-.151-3.033-.07-2.1-.355-4.324-.606-6.668a105.051,105.051,0,0,0-3.153-15,104.912,104.912,0,0,0-5.506-14.3c-1.064-2.1-2.034-4.125-3.115-5.923-.528-.906-1-1.8-1.521-2.625l-1.51-2.356c-.928-1.524-1.917-2.8-2.731-3.961-.416-.573-.788-1.118-1.156-1.6l-1.035-1.3-1.422-1.806-.361-.477a.691.691,0,0,1-.112-.172c.005,0,.055.044.145.143l.4.45,1.486,1.756,1.066,1.277c.378.476.761,1.015,1.187,1.583.835,1.148,1.844,2.417,2.793,3.936l1.539,2.348c.53.82,1.012,1.717,1.548,2.622,1.1,1.8,2.085,3.82,3.163,5.928a93.621,93.621,0,0,1,8.7,29.429c.242,2.356.514,4.592.569,6.7.042,1.052.125,2.068.126,3.044s-.01,1.916-.014,2.812c.03,1.792-.127,3.407-.2,4.828-.049.709-.077,1.371-.136,1.977s-.14,1.153-.2,1.654q-.186,1.447-.292,2.285c-.035.239-.064.434-.087.593A.682.682,0,0,1,153,540.851Z" transform="translate(-131.262 -467.286)" fill="#1c262b"/></g><g transform="translate(31.931 12.361)"><path d="M173.118,437.345a.791.791,0,0,1-.085.19l-.287.536-1.137,2.037c-.244.444-.537.924-.819,1.472s-.571,1.154-.89,1.8-.663,1.333-1.026,2.062c-.347.738-.677,1.535-1.043,2.363s-.757,1.692-1.125,2.609l-1.1,2.876-.581,1.516-.536,1.588q-.541,1.613-1.113,3.316c-1.41,4.577-2.746,9.673-3.874,15.084-1.093,5.421-1.859,10.636-2.425,15.394-.485,4.766-.844,9.07-.942,12.694-.092,1.811-.111,3.45-.116,4.89-.024,1.44-.029,2.68,0,3.693.014.986.025,1.766.033,2.335,0,.245,0,.445,0,.608a.786.786,0,0,1-.016.208.694.694,0,0,1-.029-.205l-.041-.606q-.041-.855-.114-2.335c-.06-1.014-.08-2.256-.079-3.7-.018-1.443-.02-3.085.051-4.9.058-3.632.386-7.948.85-12.727.546-4.772,1.3-10,2.4-15.438,1.131-5.427,2.483-10.535,3.918-15.118q.582-1.7,1.135-3.321l.547-1.589q.3-.771.593-1.516l1.131-2.875c.377-.917.788-1.776,1.154-2.606s.717-1.621,1.074-2.356l1.059-2.053.925-1.784c.294-.543.6-1.019.855-1.457l1.21-2,.323-.514A.73.73,0,0,1,173.118,437.345Z" transform="translate(-155.76 -437.345)" fill="#1c262b"/></g><g transform="translate(36.406 75.022)"><path d="M171.435,507.839a9.106,9.106,0,0,1-.708,1.247c-.487.78-1.155,1.932-1.938,3.377s-1.648,3.2-2.52,5.19c-.85,2-1.7,4.232-2.445,6.625-.73,2.4-1.283,4.725-1.705,6.857-.4,2.136-.678,4.076-.836,5.712s-.262,2.966-.3,3.885a9.1,9.1,0,0,1-.117,1.43,9.1,9.1,0,0,1-.053-1.435c-.015-.924.035-2.261.161-3.908a57.96,57.96,0,0,1,.749-5.759,59.5,59.5,0,0,1,4.177-13.569,57.663,57.663,0,0,1,2.619-5.179c.821-1.432,1.532-2.565,2.064-3.319A8.917,8.917,0,0,1,171.435,507.839Z" transform="translate(-160.812 -507.838)" fill="#1c262b"/></g><g transform="translate(19.138 106.09)"><path d="M141.317,542.79H170.54L167,572.745H144.957Z" transform="translate(-141.317 -542.79)" fill="#354952"/></g><g transform="translate(20.205 132.811)"><path d="M142.521,572.851,145,576.085h22.139l2.553-3.13Z" transform="translate(-142.521 -572.851)" fill="#1c262b"/></g><g transform="translate(20.134 114.681)"><path d="M169.53,552.674c0,.121-6.064.219-13.543.219s-13.545-.1-13.545-.219,6.064-.219,13.545-.219S169.53,552.553,169.53,552.674Z" transform="translate(-142.441 -552.455)" fill="#fafafa"/></g><g transform="translate(20.134 116.675)"><path d="M169.53,554.918c0,.121-6.064.219-13.543.219s-13.545-.1-13.545-.219,6.064-.219,13.545-.219S169.53,554.8,169.53,554.918Z" transform="translate(-142.441 -554.699)" fill="#fafafa"/></g><g transform="translate(20.719 118.606)"><path d="M169.241,557.09c0,.121-5.853.219-13.07.219s-13.07-.1-13.07-.219,5.85-.219,13.07-.219S169.241,556.969,169.241,557.09Z" transform="translate(-143.101 -556.871)" fill="#fafafa"/></g></g><g transform="translate(134.28)"><path d="M271.315,418.273l5.97-5.841a19.478,19.478,0,1,1,3.03,6.29l0,.01Z" transform="translate(-271.315 -387.784)" fill="#fff"/><g transform="translate(12.606 13.255)"><path d="M285.548,408.141a5.749,5.749,0,1,1,5.742,5.446A5.439,5.439,0,0,1,285.548,408.141Zm9.025,0a3.284,3.284,0,1,0-3.282,3.37A3.207,3.207,0,0,0,294.573,408.141Z" transform="translate(-285.548 -402.696)" fill="#0c2372"/><path d="M304.4,409.293l-1.409,1.474v2.663h-2.414V402.9h2.414v4.919l4.647-4.919h2.7l-4.347,4.693,4.6,5.837h-2.833Z" transform="translate(-287.266 -402.719)" fill="#0c2372"/></g></g><g transform="translate(38.239 3.352)"><g transform="translate(78.321 21.943)"><path d="M264.226,424.921c-1.226,3.062-1.189,9.4.849,11.988,1.066,1.354,2.511,2.431,3.268,3.98a6.681,6.681,0,0,1-.675,6.447,12.08,12.08,0,0,1-5.249,4.132c-2.291,1.036-5.092,1.607-7.229.281a7.886,7.886,0,0,1-3.019-4.758c-1.464-5.189-.933-10.78.588-15.952a86.46,86.46,0,0,1,6.447-14.8" transform="translate(-251.309 -416.241)" fill="#1c262b"/></g><g transform="translate(39.935 47.214)"><path d="M266.075,471.055l10.931-6.7s-8.285-16.05-9.551-16.628-18-3.059-18-3.059c-5.1,8.041-11.477,6.059-17.906.694-.576.116-10.692,2.431-13.339,2.777s-10.236,12.52-10.236,12.52l8.639,15.161.652,15.707s.472,11.169-1.355,16.933l45.8,1.492a58.531,58.531,0,0,1-1.057-7.256c-.169-1.95-.7-3.9-.3-6.405C261.608,488.326,266.075,471.055,266.075,471.055Z" transform="translate(-207.97 -444.671)" fill="#ffae00"/><g transform="translate(5.347 3.624)"><path d="M214.007,453.338c.686,2.314,6.537,5.737,8.577,4.457a6.323,6.323,0,0,1,1.958-1.163c.942-.185,1.834.415,2.746.717,2.132.708,4.873-.083,6.412,1.559.756.807,1.239,2.185,2.343,2.154a5.614,5.614,0,0,0,1.146-.322c1.238-.306,2.437.641,3.709.731a5.628,5.628,0,0,0,1.959-.331l9.137-2.689a2.427,2.427,0,0,0,1.686-1.094,4.876,4.876,0,0,1-3.339-.14,10.022,10.022,0,0,0-1.791-.754c-1.615-.331-3.081.958-4.685,1.336-1.688.4-3.429-.236-5.048-.861l-8.285-3.2a20.065,20.065,0,0,1-6.442-3.44c-.576-.521-2.743.574-3.422.2a21.585,21.585,0,0,1-2.244-1.747c-.143-.1-1.406,1.035-1.955,1.633C215.879,451.031,214.007,453.338,214.007,453.338Z" transform="translate(-214.007 -448.748)" fill="#fafafa"/></g><g transform="translate(8.947 38.575)"><path d="M218.416,496.352a46.419,46.419,0,0,1,7.688-2.629,14.792,14.792,0,0,1,4.866-.241,5.7,5.7,0,0,0,2.422.1,13.67,13.67,0,0,0,2-1.15c1.981-.979,4.352.242,6.542-.046a2.206,2.206,0,0,0,1.448-.678,1.1,1.1,0,0,0-.027-1.479,1.546,1.546,0,0,0-.879-.282,20.083,20.083,0,0,0-3.136.039l-1.683.108a6.445,6.445,0,0,1-2.092-.093,13.591,13.591,0,0,1-1.91-.86c-2.245-.993-4.826-.548-7.256-.205a9.982,9.982,0,0,1-3.65.035,4.37,4.37,0,0,0-1.246-.216c-.712.045-1.313.571-2.016.69s-.748-1.237-1.417-1.379Z" transform="translate(-218.072 -488.068)" fill="#fafafa"/></g><g transform="translate(24.317 24.341)"><path d="M264.992,473.526a2.535,2.535,0,0,1-.816.35c-1.321.184-2.13-2.149-3.394-1.724-.492.165-.807.732-1.323.79-.578.066-1-.524-1.528-.761-.948-.423-1.988.337-3.022.419-1.166.093-2.529-.637-3.4.147-.34.307-.536.814-.977.934-.418.115-.825-.181-1.24-.306-1.265-.379-2.43.846-3.731,1.071-1.48.257-3.249-.748-4.375.248-.4.353-.646.924-1.158,1.071-.476.138-.967-.16-1.463-.162-1.137,0-2.183,1.5-3.142.889a1.356,1.356,0,0,0,1.219.959,6.787,6.787,0,0,0,1.647-.14c3.223-.4,6.495,1.706,9.621.82a13.266,13.266,0,0,1,2.559-.773c1.668-.121,3.181,1.178,4.851,1.116,1.3-.048,2.51-.923,3.8-.775,1.332.153,2.3,1.324,3.507,1.9a8.376,8.376,0,0,0,4.743.274l.455-.108a31.744,31.744,0,0,0,1.6-6.358A5.01,5.01,0,0,0,264.992,473.526Z" transform="translate(-235.425 -472.055)" fill="#fafafa"/></g><g transform="translate(21.846 53.82)"><path d="M260.921,505.218a3.405,3.405,0,0,0-1.74.708,2.862,2.862,0,0,1-1.765.609c-1.145-.125-2.173-1.537-3.174-.966a5.8,5.8,0,0,0-.7.638c-.7.573-1.816.414-2.482,1.027-.345.317-.533.812-.956,1.011-.8.375-1.554-.549-2.358-.912-1.26-.567-2.691.312-4.072.286a4.775,4.775,0,0,0-2.078.034,6.968,6.968,0,0,0-.92.662c-1.054.708-2.472.379-3.651-.091a6.667,6.667,0,0,0-3.656-.82c-.345.069-.738.287-.731.641a.791.791,0,0,0,.14.381,5.819,5.819,0,0,0,3.515,2.239,17.714,17.714,0,0,1,4.408,1.5c.844.515,1.732,1.276,2.685,1.014.751-.206,1.214-.994,1.941-1.276,1.027-.4,2.244.324,3.261-.1.34-.142.623-.4.969-.529.9-.328,1.9.331,2.836.118a4.605,4.605,0,0,1,.99-.261c.888,0,1.467,1.23,2.347,1.113.545-.072.911-.648,1.451-.748.712-.132,1.521.59,2.1.151.131-.1.237-.256.4-.273.229-.022.369.232.508.416.626.834,2.549.3,3.519-.083l-.632-5.6C263.082,505.38,261.556,505.218,260.921,505.218Z" transform="translate(-232.635 -505.218)" fill="#fafafa"/></g><g transform="translate(9.997 1.179)" opacity="0.3"><path d="M220.1,453.23a14.312,14.312,0,0,0-.344,8.518,32.7,32.7,0,0,0,1.6,3.669,27.093,27.093,0,0,1,2.333,13.316.749.749,0,0,0,.058.455c.184.3.643.193.965.045l2.068-.948c.893.732,1.027,2.178,2.018,2.768,1.049.623,2.366-.073,3.35-.8a17.923,17.923,0,0,0,5.485-5.831,22.8,22.8,0,0,0,1.756-5.252c.391-1.585.782-3.173,1.027-4.788a27.021,27.021,0,0,0-3.9-18.39" transform="translate(-219.257 -445.997)" fill="#040405"/></g><g transform="translate(54.627 10.878)"><path d="M269.648,456.909a1.059,1.059,0,0,1,.1.244l.244.716c.213.657.5,1.552.855,2.644.356,1.129.775,2.46,1.238,3.932a30.416,30.416,0,0,1,1.176,4.921,15.321,15.321,0,0,1-.246,5.057,27.323,27.323,0,0,1-1.173,3.963c-.414,1.1-.786,1.974-1.048,2.576l-.309.69a1.106,1.106,0,0,1-.123.234,1.076,1.076,0,0,1,.078-.253l.267-.707c.235-.612.582-1.5.973-2.6a28.943,28.943,0,0,0,1.115-3.948,15.422,15.422,0,0,0,.225-4.982,31.7,31.7,0,0,0-1.15-4.888l-1.188-3.945-.78-2.667-.2-.729A1.073,1.073,0,0,1,269.648,456.909Z" transform="translate(-269.646 -456.909)" fill="#1c262b"/></g><g transform="translate(55.195 11.649)" opacity="0.3"><path d="M273.755,470.844a11.1,11.1,0,0,0-.227-6.885,26.6,26.6,0,0,0-3.242-6.183c.641,4.429,2.663,8.594,3.063,13.052" transform="translate(-270.287 -457.776)" fill="#040405"/></g><g transform="translate(21.433 44.441)" opacity="0.3"><path d="M232.168,503.3a18.347,18.347,0,0,1,7.653-5.979,36.2,36.2,0,0,1,9.465-2.5,5.866,5.866,0,0,1,3.8.334c1.122.653,1.656,2.415.678,3.271a3.061,3.061,0,0,1-1.843.553c-4.487.326-9.226.343-13.1,2.632-1.533.9-2.9,2.151-4.591,2.7-.769.247-1.907.108-1.983-.7" transform="translate(-232.168 -494.668)" fill="#040405"/></g><g transform="translate(20.164 43.923)"><path d="M254.875,494.152a1.134,1.134,0,0,1-.272.023l-.777.018-.56.007-.666.044c-.477.037-1.021.054-1.617.144l-.937.117c-.325.046-.659.117-1.008.179-.7.108-1.43.3-2.2.485a37.019,37.019,0,0,0-4.885,1.7,42.042,42.042,0,0,0-4.6,2.374c-.678.418-1.326.81-1.908,1.215-.6.387-1.128.776-1.616,1.132s-.917.692-1.3.982-.7.551-.961.767l-.607.489a1.114,1.114,0,0,1-.222.157,1.179,1.179,0,0,1,.19-.195l.577-.524c.251-.228.562-.5.937-.8s.791-.659,1.281-1.015,1.012-.764,1.6-1.161c.58-.414,1.228-.814,1.906-1.24a39.99,39.99,0,0,1,4.621-2.405,35.375,35.375,0,0,1,4.925-1.691c.781-.176,1.519-.365,2.225-.467.352-.057.689-.124,1.018-.165l.944-.1c.6-.08,1.15-.084,1.63-.109.24-.009.463-.022.67-.024l.562.014.779.028A1.178,1.178,0,0,1,254.875,494.152Z" transform="translate(-230.736 -494.084)" fill="#1c262b"/></g><g transform="translate(5.377 19.049)" opacity="0.3"><path d="M215.14,466.121a7.152,7.152,0,0,0-.833,5.854,21.168,21.168,0,0,0,2.564,5.511,16.891,16.891,0,0,0-.4-5.23c-.487-2.052-1.364-4.047-1.36-6.156" transform="translate(-214.041 -466.101)" fill="#040405"/></g></g><g transform="translate(49.769)"><g transform="translate(29.445 0.67)"><path d="M252.734,394.647a2.711,2.711,0,0,1,3.192-2.3,4.924,4.924,0,0,1,3.3,2.772,35.954,35.954,0,0,1,1.534,4.2c1.393,3.767,4.149,6.968,5.15,10.859a16.512,16.512,0,0,1-.254,8.367,37.429,37.429,0,0,1-3.295,7.772,28.548,28.548,0,0,0-2.171,4.63,8.11,8.11,0,0,0-.151,5.035.94.94,0,0,1,.065.673c-.146.321-.6.333-.938.246a4.726,4.726,0,0,1-3.191-3.879,10.178,10.178,0,0,1,.779-5.2c.624-1.66,1.429-3.256,1.889-4.968,1.01-3.748.308-7.71.134-11.589a42.692,42.692,0,0,0-.462-6.539,8.568,8.568,0,0,0-3.256-5.5,12.558,12.558,0,0,1-2.108-1.42,1.823,1.823,0,0,1-.354-2.3" transform="translate(-252.317 -392.308)" fill="#1c262b"/></g><g transform="translate(11.218 5.692)"><path d="M251.913,438.676s-.05-2.264-.048-2.239c0,0,6.679-1.276,7.862-10.089.588-4.383.2-11.537-.3-17.38-.454-5.26-4.084-11.64-9.3-10.961l-16.232,4.53c-1.585.206-2.107,1.567-2.037,3.169l-.114.754,1.352,25.126.463,4.2c.239,4.775,4.375,9.822,9.479,9.958h0C247.956,446,251.981,443.966,251.913,438.676Z" transform="translate(-231.738 -397.958)" fill="#f7ad8b"/><g transform="translate(21.744 13.88)"><g transform="translate(0.716 1.808)"><path d="M259.334,416.6a1.126,1.126,0,0,1-1.056,1.162,1.075,1.075,0,0,1-1.181-.988,1.125,1.125,0,0,1,1.054-1.163A1.077,1.077,0,0,1,259.334,416.6Z" transform="translate(-257.096 -415.607)" fill="#1c262b"/></g><path d="M260.724,414.705c-.135.149-1-.461-2.208-.429-1.206.014-2.078.659-2.212.514-.066-.065.069-.333.448-.624a3.076,3.076,0,0,1,1.767-.593,2.948,2.948,0,0,1,1.762.525C260.659,414.375,260.791,414.638,260.724,414.705Z" transform="translate(-256.288 -413.572)" fill="#1c262b"/></g><g transform="translate(9.995 16.147)"><path d="M247.459,417.256c-.135.15-1-.46-2.208-.429-1.206.015-2.078.66-2.212.514-.066-.064.068-.332.448-.623a3.079,3.079,0,0,1,1.767-.594,2.954,2.954,0,0,1,1.762.525C247.393,416.927,247.526,417.189,247.459,417.256Z" transform="translate(-243.023 -416.123)" fill="#1c262b"/></g><g transform="translate(18.153 14.078)"><path d="M253.035,423.879a7.936,7.936,0,0,1,1.953-.4c.307-.039.6-.108.645-.32a1.582,1.582,0,0,0-.228-.912q-.461-1.113-.967-2.334a40.579,40.579,0,0,1-2.193-6.115,40.678,40.678,0,0,1,2.678,5.923q.486,1.231.929,2.349a1.8,1.8,0,0,1,.189,1.211.775.775,0,0,1-.5.464,2.083,2.083,0,0,1-.522.086A7.843,7.843,0,0,1,253.035,423.879Z" transform="translate(-252.233 -413.795)" fill="#1c262b"/></g><g transform="translate(8.337 35.621)"><path d="M252.941,440.89a22.2,22.2,0,0,1-11.79-2.859s3.1,6.127,11.838,5.1Z" transform="translate(-241.151 -438.031)" fill="#e88559"/></g><g transform="translate(8.853 13.154)"><path d="M247.268,413.816c-.139.322-1.333.091-2.758.174-1.426.054-2.592.4-2.762.092-.075-.146.143-.443.624-.732a4.792,4.792,0,0,1,4.205-.2C247.083,413.389,247.328,413.664,247.268,413.816Z" transform="translate(-241.734 -412.756)" fill="#1c262b"/></g><g transform="translate(21.128 10.079)"><path d="M260.462,410.494c-.245.281-1.236.019-2.419.033-1.184-.02-2.182.237-2.419-.045-.1-.138.047-.417.479-.687a3.8,3.8,0,0,1,1.956-.5A3.733,3.733,0,0,1,260,409.8C260.425,410.077,260.569,410.357,260.462,410.494Z" transform="translate(-255.592 -409.297)" fill="#1c262b"/></g><g transform="translate(14.449 25.941)"><path d="M251.656,427.9a2,2,0,0,0-1.5-.759,2.371,2.371,0,0,0-1.732.834c-.011.01-.019.02-.029.03s-.046.042-.064.066l.025-.012a1.142,1.142,0,0,0-.3.654,1.679,1.679,0,0,0,.718,1.4,2.109,2.109,0,0,0,2.435.1A1.737,1.737,0,0,0,251.656,427.9Z" transform="translate(-248.051 -427.142)" fill="#e88559"/></g><g transform="translate(14.855 25.53)"><path d="M248.576,426.679c.07-.006.125.28.319.677a2.781,2.781,0,0,0,2.719,1.629c.44-.018.717-.1.746-.04s-.215.255-.7.365a2.629,2.629,0,0,1-3.069-1.838C248.455,426.99,248.52,426.679,248.576,426.679Z" transform="translate(-248.51 -426.679)" fill="#1c262b"/></g></g><g transform="translate(31.564 3.999)"><path d="M254.74,397.937a2.746,2.746,0,0,0,.951,2.372,13.209,13.209,0,0,0,2.2,1.485c2.332,1.461,3.482,4.652,4.575,7.183,1.919-3.67-1.034-8.43-3.474-11.3a5.3,5.3,0,0,0-1.523-1.332,2.219,2.219,0,0,0-1.957-.117" transform="translate(-254.709 -396.054)" fill="#1c262b"/></g><g transform="translate(32.631 6.333)"><path d="M262.606,427.53a1.776,1.776,0,0,1,.1-.324l.333-.912c.267-.8.662-1.955,1.009-3.42a32.838,32.838,0,0,0,.639-11.678,26.158,26.158,0,0,0-1.51-6.268,11.055,11.055,0,0,0-2.916-4.308,7.841,7.841,0,0,0-3.07-1.692c-.81-.215-1.282-.212-1.279-.241a1.667,1.667,0,0,1,.339,0,6.048,6.048,0,0,1,.963.147,7.684,7.684,0,0,1,3.158,1.653,11.066,11.066,0,0,1,3.011,4.355,25.755,25.755,0,0,1,1.544,6.323,31.841,31.841,0,0,1-.713,11.749,31.1,31.1,0,0,1-1.087,3.412c-.157.393-.289.693-.376.9A1.829,1.829,0,0,1,262.606,427.53Z" transform="translate(-255.914 -398.679)" fill="#354952"/></g><g transform="translate(36.827 3.714)"><path d="M263.934,433.52a.4.4,0,0,1-.043-.1l-.1-.31a5.8,5.8,0,0,1-.2-1.239,9.112,9.112,0,0,1,1.048-4.46,45.832,45.832,0,0,1,3.777-5.676,14.432,14.432,0,0,0,1.829-3.534,10.913,10.913,0,0,0,.494-4.22,10.762,10.762,0,0,0-1.151-4.088,15.812,15.812,0,0,0-2.319-3.239,62.664,62.664,0,0,1-4.545-5.076,10.648,10.648,0,0,1-1.941-4.157,5.517,5.517,0,0,1-.109-1.684,11.015,11.015,0,0,0,.2,1.665,10.883,10.883,0,0,0,1.988,4.076,66.481,66.481,0,0,0,4.573,5.028,15.887,15.887,0,0,1,2.363,3.279,10.943,10.943,0,0,1,1.182,4.18,11.079,11.079,0,0,1-.511,4.313,14.556,14.556,0,0,1-1.87,3.586,48.107,48.107,0,0,0-3.808,5.625,9.232,9.232,0,0,0-1.107,4.38A8.219,8.219,0,0,0,263.934,433.52Z" transform="translate(-260.652 -395.733)" fill="#1c262b"/></g><path d="M249.26,392.836A8.775,8.775,0,0,0,244,391.557a18.215,18.215,0,0,0-13.266,5.654c-2.786,3.1-6.9,9.085-7.684,13.188-1.9,9.991,4.394,12.79-.732,28.387a71.646,71.646,0,0,0-2.658,8.46,14.975,14.975,0,0,0-.285,3.142,8.55,8.55,0,0,0,.508,5.751c.871,2.132,2.2,4.053,3.036,6.2s2.67,5.672,1.446,7.621c1.729-.464,1.791-2.276,3.162-3.431a9.111,9.111,0,0,1-.038,4.724,9.835,9.835,0,0,0,5.81-2.424c3.2-2.827,4.206-7.369,4.7-11.62a71.136,71.136,0,0,0-2.43-27.223l-.035.044c-1.785-5.771-5.164-11.1-2.128-12.37,5.285-2.212.458-4.545,2.47-10.123.629-1.741,1.33-3.585,2.811-4.69,1.763-1.316,4.149-1.251,6.343-1.372s4.687-.7,5.718-2.647l.133-1.167A4.116,4.116,0,0,0,249.26,392.836Z" transform="translate(-219.073 -391.555)" fill="#1c262b"/><g transform="translate(3.917 1.364)"><path d="M225.917,429.941a1.8,1.8,0,0,0,.386-.393,2.381,2.381,0,0,0,.3-1.527,25.371,25.371,0,0,0-1.752-5.614,22.133,22.133,0,0,1-1.183-3.921,8.707,8.707,0,0,1,.34-4.674,8.6,8.6,0,0,1,3.171-4.076c1.488-1.078,3.519-1.241,4.764-2.7a12.786,12.786,0,0,0,2.4-4.9,21.892,21.892,0,0,1,.934-2.487,12.771,12.771,0,0,1,4.737-5.395,8.031,8.031,0,0,1,1.931-.918,5.6,5.6,0,0,1,1.96-.232,10.414,10.414,0,0,1,3.269.815,24.327,24.327,0,0,1,2.317,1.048A3.534,3.534,0,0,1,250.719,396a1.659,1.659,0,0,1,.246.506,4.7,4.7,0,0,0-.286-.477,3.619,3.619,0,0,0-1.233-.982c-.612-.32-1.4-.642-2.321-1a10.373,10.373,0,0,0-3.228-.77,5.409,5.409,0,0,0-1.9.24,7.888,7.888,0,0,0-1.879.909,12.619,12.619,0,0,0-4.633,5.322,21.784,21.784,0,0,0-.919,2.463,12.936,12.936,0,0,1-2.453,5,6.153,6.153,0,0,1-2.376,1.556,11.953,11.953,0,0,0-2.431,1.18,8.389,8.389,0,0,0-3.095,3.956,8.52,8.52,0,0,0-.352,4.56,22.235,22.235,0,0,0,1.146,3.894,24.3,24.3,0,0,1,1.686,5.669,2.391,2.391,0,0,1-.35,1.562,1.265,1.265,0,0,1-.3.294A.572.572,0,0,1,225.917,429.941Z" transform="translate(-223.495 -393.089)" fill="#354952"/></g><g transform="translate(8.839 24.425)"><path d="M234.255,421.476a2.552,2.552,0,0,0-3.78-2.1c-.875.533-1.531,1.581-1.407,3.563.33,5.284,5.548,3.861,5.548,3.709C234.615,426.555,234.411,423.661,234.255,421.476Z" transform="translate(-229.052 -419.033)" fill="#f7ad8b"/><g transform="translate(1.35 1.596)"><path d="M233.056,424.948c-.024-.016-.088.07-.238.151a.917.917,0,0,1-.685.058,2.284,2.284,0,0,1-1.178-1.978,3.056,3.056,0,0,1,.174-1.334,1.062,1.062,0,0,1,.646-.75.468.468,0,0,1,.557.219c.08.143.053.251.081.258s.107-.1.051-.311a.588.588,0,0,0-.228-.318.69.69,0,0,0-.515-.1,1.291,1.291,0,0,0-.907.879,3.126,3.126,0,0,0-.226,1.493,2.393,2.393,0,0,0,1.48,2.2.982.982,0,0,0,.83-.192C233.054,425.076,233.075,424.956,233.056,424.948Z" transform="translate(-230.576 -420.828)" fill="#e88559"/></g></g><g transform="translate(11.811 30.763)"><path d="M235.272,429.147c.012,0,.037.106-.01.293a1.17,1.17,0,0,1-.477.646,1.3,1.3,0,0,1-1.183.137,1.74,1.74,0,0,1-1.036-1.026,2.486,2.486,0,0,1,.457-2.506,1.333,1.333,0,0,1,.931-.524,2.852,2.852,0,0,0-.8.636,2.414,2.414,0,0,0-.457.99,2.326,2.326,0,0,0,.094,1.314,1.558,1.558,0,0,0,.888.9,1.147,1.147,0,0,0,1.015-.07,1.185,1.185,0,0,0,.48-.532C235.242,429.247,235.252,429.145,235.272,429.147Z" transform="translate(-232.407 -426.163)" fill="#fff"/></g><g transform="translate(7.654 4.739)"><path d="M250.629,398.838a6.986,6.986,0,0,0-1.114-.948,6.033,6.033,0,0,0-3.816-.8,7.1,7.1,0,0,0-2.6.786,9.907,9.907,0,0,0-2.477,1.929,17,17,0,0,0-2.1,2.792c-.64,1.036-1.22,2.16-1.823,3.308s-1.2,2.271-1.882,3.3a15.945,15.945,0,0,1-2.242,2.742c-.8.794-1.6,1.5-2.29,2.217a10.141,10.141,0,0,0-1.67,2.18,5.63,5.63,0,0,0-.668,3.841,4.441,4.441,0,0,0,.578,1.339,2.256,2.256,0,0,1-.235-.3,3.619,3.619,0,0,1-.435-1.012,5.638,5.638,0,0,1,.608-3.945,10.123,10.123,0,0,1,1.676-2.238c.689-.731,1.486-1.445,2.277-2.236a15.942,15.942,0,0,0,2.2-2.715c.667-1.018,1.263-2.133,1.865-3.282s1.187-2.276,1.836-3.321a17.009,17.009,0,0,1,2.143-2.821A10.007,10.007,0,0,1,243,397.694a7.216,7.216,0,0,1,2.682-.779,6.025,6.025,0,0,1,3.884.9,4.539,4.539,0,0,1,.827.725A2.3,2.3,0,0,1,250.629,398.838Z" transform="translate(-227.714 -396.887)" fill="#354952"/></g></g><g transform="translate(23.427 32.154)"><g transform="translate(0 22.871)"><path d="M206.565,462.328l.978-4.746-9.008-4.124-.232.775c-1.288,4.3-7.707,25.028-8.1,26.574-1.448,5.752-1.128,17.133,1.161,19.265a11.3,11.3,0,0,0,7.661,2.7c2.322-.259,8.723-8.525,8.723-8.525l5.874-18.878Z" transform="translate(-189.332 -453.458)" fill="#f7ad8b"/></g><g transform="translate(15.016 28.918)"><path d="M208.9,460.261a2.118,2.118,0,0,1-.044.367c-.043.262-.1.61-.174,1.045-.167.931-.4,2.235-.688,3.835-.287,1.619-.628,3.547-.92,5.7a54.8,54.8,0,0,0-.545,7.033,29.307,29.307,0,0,0,.788,6.988,23.147,23.147,0,0,1,.93,5.709,7.564,7.564,0,0,1-.968,3.763,3.906,3.906,0,0,1-.905,1.107,7.524,7.524,0,0,0,.823-1.154,7.673,7.673,0,0,0,.879-3.717,23.72,23.72,0,0,0-.976-5.656,28.916,28.916,0,0,1-.813-7.04,52.681,52.681,0,0,1,.566-7.063c.3-2.156.663-4.084.973-5.7.319-1.594.578-2.893.763-3.82q.138-.648.22-1.036A2.114,2.114,0,0,1,208.9,460.261Z" transform="translate(-206.285 -460.261)" fill="#e88559"/></g><g transform="translate(8.297)"><path d="M217.345,446.875,215.6,444.94v-2.3l-1.811-2.609-3.608.581-1.1.092.733-5.289a22.283,22.283,0,0,1,1.623-3.918c1.286-2.58-.785-3.764-.785-3.764l-3.869,6.795L205.5,439.04l-.551-3.688a33.136,33.136,0,0,0,.561-5.427,1.635,1.635,0,0,0-1.939-1.579l-1.469,8.112v4.056l-1.286-2.4s-.275-2.028-.459-3.872-1.654-1.291-1.654-1.291v5.992l1.654,5.531s-1.086,7.137-1.27,7.413l8.506,5.982a18.336,18.336,0,0,1,2.225-1.5c.368-.092,4.96-3.5,4.96-3.5l3.215-3.411s.551-.369.551-.738A7.987,7.987,0,0,0,217.345,446.875Zm-4.409,2.212-1.837-.829-1.011-2.489.748-1.366.262-.477.337-.236,1.225.236a9.249,9.249,0,0,1,.459,2.581c-.091.829,1.011,1.659,1.011,1.659Z" transform="translate(-198.699 -427.728)" fill="#f7ad8b"/><g transform="translate(11.057 13.976)"><path d="M212.862,445.437c0,.028-.169.044-.422-.036a1.892,1.892,0,0,1-1.249-1.528c-.028-.265.019-.425.048-.422a2.6,2.6,0,0,0,1.623,1.986Z" transform="translate(-211.183 -443.451)" fill="#e88559"/><g transform="translate(6.37 4.079)"><path d="M218.412,450.726a16.335,16.335,0,0,1,.12-2.686,4.914,4.914,0,0,1-.12,2.686Z" transform="translate(-218.375 -448.04)" fill="#e88559"/></g><g transform="translate(2.586 6.454)"><path d="M215.091,454.507c-.022.02-.234-.15-.5-.5a2.38,2.38,0,0,1-.477-1.662.984.984,0,0,1,.227-.489,4.417,4.417,0,0,1,.324-.323,6.465,6.465,0,0,1,.6-.479c.353-.252.607-.367.624-.33a4.48,4.48,0,0,1-.517.466c-.161.14-.351.31-.551.507-.1.1-.2.2-.3.316a.77.77,0,0,0-.167.374,1.96,1.96,0,0,0,.087.859,3.034,3.034,0,0,0,.294.667A3.358,3.358,0,0,1,215.091,454.507Z" transform="translate(-214.103 -450.712)" fill="#e88559"/></g></g><g transform="translate(14.519 16.977)"><path d="M217.479,446.827a2.864,2.864,0,0,1-.613,1.9,1.613,1.613,0,0,1-.626.526,1.075,1.075,0,0,1-.675.063c-.394-.1-.5-.372-.469-.375.028-.027.169.167.5.205a.983.983,0,0,0,.549-.1,1.539,1.539,0,0,0,.527-.469A8.681,8.681,0,0,0,217.479,446.827Z" transform="translate(-215.092 -446.827)" fill="#e88559"/></g><g transform="translate(13.724 14.969)"><path d="M214.9,448.244c-.057,0-.19-.811-.447-1.811a10.245,10.245,0,0,1-.241-1.308c-.034-.342-.011-.556.021-.557s.073.2.149.53l.307,1.28A4.422,4.422,0,0,1,214.9,448.244Z" transform="translate(-214.194 -444.568)" fill="#e88559"/></g><g transform="translate(14.364 18.645)"><path d="M218.017,451.348a4.18,4.18,0,0,1-2.08-.738,2.553,2.553,0,0,1-.678-.577,1.6,1.6,0,0,1-.312-.668.98.98,0,0,1,.035-.662c.041,0,.022.255.132.619a1.961,1.961,0,0,0,.949,1.079C217.075,451.044,218.038,451.269,218.017,451.348Z" transform="translate(-214.917 -448.704)" fill="#e88559"/></g><g transform="translate(5.069 19.175)"><path d="M209.247,453.465a9.1,9.1,0,0,0-4.824-4.159,2.609,2.609,0,0,1,.939.244,7.05,7.05,0,0,1,3.5,3.021A2.673,2.673,0,0,1,209.247,453.465Z" transform="translate(-204.422 -449.3)" fill="#e88559"/></g><g transform="translate(3.976 14.684)"><path d="M206.027,444.3c0,.072-.672.129-1.449.4s-1.345.64-1.387.581a3.5,3.5,0,0,1,2.836-.983Z" transform="translate(-203.188 -444.247)" fill="#e88559"/></g></g></g><g transform="translate(0 111.041)"><g transform="translate(23.935 37.16)"><g transform="translate(0 1.461)"><path d="M219.27,559.924s-27.245,7.567-28.338,7.954c-1.641.58-1.366,6.614,1.189,6.521,1.208-.044,20.927.737,23.418.581s9.2-2.815,9.2-2.815Z" transform="translate(-189.905 -559.924)" fill="#354952"/></g><g transform="translate(14.884 6.432)"><path d="M209.841,570.978a12,12,0,0,0-3.127-5.453,6.08,6.08,0,0,1,3.127,5.453Z" transform="translate(-206.71 -565.516)" fill="#1c262b"/></g><g transform="translate(18.23 5.375)"><path d="M213.113,569.554c-.133.023-.409-1.269-1.135-2.7s-1.582-2.428-1.484-2.522a6.866,6.866,0,0,1,2.618,5.22Z" transform="translate(-210.487 -564.328)" fill="#1c262b"/></g><g transform="translate(21.393 4.431)"><path d="M216.186,568.719a9.622,9.622,0,0,0-2.121-5.445,5.142,5.142,0,0,1,2.121,5.445Z" transform="translate(-214.059 -563.265)" fill="#1c262b"/></g><g transform="translate(22.745)"><path d="M215.877,564.634a4.847,4.847,0,0,1-.292-2.035,9.651,9.651,0,0,1,.275-2.229,9.545,9.545,0,0,1,.406-1.269,1.533,1.533,0,0,1,.437-.67.725.725,0,0,1,.935.046,1.213,1.213,0,0,1,.363.773,5.306,5.306,0,0,1,.035.723,6.042,6.042,0,0,1-.168,1.339,8.127,8.127,0,0,1-.839,2.09,5.542,5.542,0,0,1-1.223,1.646c-.063-.044.394-.681.938-1.8a8.984,8.984,0,0,0,.714-2.033,6.064,6.064,0,0,0,.132-1.249c-.012-.42-.006-.946-.252-1.148a.263.263,0,0,0-.36-.03,1.158,1.158,0,0,0-.3.477,10.293,10.293,0,0,0-.413,1.206,11.036,11.036,0,0,0-.36,2.135C215.827,563.849,215.951,564.623,215.877,564.634Z" transform="translate(-215.585 -558.281)" fill="#1c262b"/></g><g transform="translate(23.071 5.791)"><path d="M215.953,565.079a3.8,3.8,0,0,1,1.757-.284,7.93,7.93,0,0,1,1.934.237,4.282,4.282,0,0,1,1.113.412,1.154,1.154,0,0,1,.615,1.25,1.36,1.36,0,0,1-.981.976,2.479,2.479,0,0,1-1.222,0,4.7,4.7,0,0,1-1.77-.873,4.785,4.785,0,0,1-1.267-1.252,11.858,11.858,0,0,1,1.452.986,4.823,4.823,0,0,0,1.67.726,2.134,2.134,0,0,0,1.011-.014.926.926,0,0,0,.663-.65.705.705,0,0,0-.4-.763,4.088,4.088,0,0,0-.988-.387,9.041,9.041,0,0,0-1.836-.322C216.633,565.044,215.965,565.153,215.953,565.079Z" transform="translate(-215.953 -564.795)" fill="#1c262b"/></g><g transform="translate(11.952 7.568)"><path d="M205.277,571.413a7.4,7.4,0,0,0-1.872-4.606,3.929,3.929,0,0,1,1.872,4.606Z" transform="translate(-203.4 -566.794)" fill="#1c262b"/></g><g transform="translate(3.609 13.441)"><path d="M223.21,573.409a5.618,5.618,0,0,1-1.054.5,23.313,23.313,0,0,1-3.032.943,43.105,43.105,0,0,1-10.4.989c-4.083-.045-7.762-.232-10.43-.339l-3.158-.168a5.732,5.732,0,0,1-1.156-.124,5.581,5.581,0,0,1,1.161-.054l3.161.022,10.423.2a48.589,48.589,0,0,0,10.328-.847C221.658,574,223.178,573.325,223.21,573.409Z" transform="translate(-193.98 -573.402)" fill="#1c262b"/></g><g transform="translate(20.419 11.747)"><path d="M226.185,573.82c-.037.063-.783-.374-2.042-.928a9.462,9.462,0,0,0-5.156-.86,8.161,8.161,0,0,0-4.456,2.66,15.818,15.818,0,0,1-1.57,1.609,8.538,8.538,0,0,1,1.334-1.828,10.754,10.754,0,0,1,1.806-1.7,6.46,6.46,0,0,1,2.815-1.2,8.99,8.99,0,0,1,5.364,1.019A7.245,7.245,0,0,1,226.185,573.82Z" transform="translate(-212.959 -571.496)" fill="#1c262b"/></g><g transform="translate(5.069 8.495)"><path d="M196.873,574.6c-.05-.034.183-.395.4-1.034a5.019,5.019,0,0,0-.9-4.9c-.428-.519-.774-.773-.74-.822s.429.143.934.646a4.676,4.676,0,0,1,.951,5.171C197.222,574.309,196.906,574.624,196.873,574.6Z" transform="translate(-195.628 -567.838)" fill="#1c262b"/></g></g><path d="M213.529,516.476l-4.894,12.1s-24.331-8.935-38.574-6.332c-5.415.99-11.21,13.321-3.321,21.239,7.7,7.726,21.467,18.647,47.294,22.183.645.088,11.224,2.368,10.572,2.291s14.832,2.382,14.832,2.382l3.635-13.795,28.849,4.543c17-1.165,25.322-19.41,15.083-25.283-9.551-5.479-27.509-5.918-27.509-5.918l-4.41-12.069Z" transform="translate(-162.882 -516.476)" fill="#1c262b"/><g transform="translate(23.935 11.561)"><path d="M243.1,572.286c.076-.467.281-1.723.7-4.3.229-1.376.513-3.053.877-4.983.182-.964.387-1.992.631-3.074.124-.54.256-1.1.414-1.66.081-.282.165-.567.268-.852a2.563,2.563,0,0,1,.438-.851l.043.209c-6.142-2.188-13.816-5.078-22-8.54-5.031-2.148-9.777-4.316-13.953-6.574A45.258,45.258,0,0,1,204.8,538.1c-1.7-1.258-3.209-2.514-4.626-3.609a25.024,25.024,0,0,0-7.257-4.268,11.166,11.166,0,0,0-1.271-.377,7.278,7.278,0,0,0-.949-.206l-.589-.108a1.061,1.061,0,0,1-.2-.048.976.976,0,0,1,.2.016l.6.077a6.712,6.712,0,0,1,.96.179,10.9,10.9,0,0,1,1.288.351,17.252,17.252,0,0,1,3.34,1.492,35.052,35.052,0,0,1,4.012,2.718c1.43,1.085,2.949,2.332,4.645,3.575a45.536,45.536,0,0,0,5.707,3.517c4.17,2.236,8.913,4.395,13.938,6.54,8.174,3.459,15.838,6.37,21.96,8.592l.171.062-.128.147a2.5,2.5,0,0,0-.378.753c-.1.276-.186.556-.267.834-.159.557-.295,1.108-.422,1.645-.251,1.076-.463,2.1-.655,3.061-.382,1.924-.684,3.6-.934,4.968-.251,1.356-.448,2.423-.586,3.171-.072.364-.129.641-.174.827A2.241,2.241,0,0,1,243.1,572.286Z" transform="translate(-189.905 -529.482)" fill="#354952"/></g><g transform="translate(59.987 20.155)"><path d="M289.149,539.991a.56.56,0,0,1-.156-.014l-.449-.071c-.4-.052-.969-.2-1.724-.274a33.223,33.223,0,0,0-6.4-.228,47.35,47.35,0,0,0-9.367,1.55c-1.729.466-3.53,1.012-5.372,1.652s-3.721,1.38-5.646,2.149a52.114,52.114,0,0,1-5.756,1.906c-1.887.523-3.732.932-5.5,1.274-3.53.69-6.739,1.116-9.435,1.445s-4.881.552-6.391.708l-1.74.172-.453.036a.542.542,0,0,1-.155,0,.585.585,0,0,1,.151-.033l.45-.068,1.733-.229,6.378-.806c2.69-.357,5.892-.805,9.407-1.508,1.757-.349,3.594-.762,5.472-1.286a52.9,52.9,0,0,0,5.722-1.9c1.923-.769,3.812-1.508,5.661-2.148s3.66-1.181,5.4-1.641a46.294,46.294,0,0,1,9.428-1.493,31.313,31.313,0,0,1,6.427.328c.756.091,1.326.26,1.719.332l.444.1A.585.585,0,0,1,289.149,539.991Z" transform="translate(-230.609 -539.15)" fill="#354952"/></g><g transform="translate(50.647 13.427)"><path d="M243.5,534.185c.019.205-1.291.534-3.452.737a44.97,44.97,0,0,1-16.765-1.8c-2.068-.658-3.279-1.258-3.218-1.454.137-.436,5.247.928,11.682,1.6C238.176,533.977,243.458,533.729,243.5,534.185Z" transform="translate(-220.063 -531.581)" fill="#1c262b"/></g><g transform="translate(75.322 13.605)"><path d="M269.488,531.786a6.066,6.066,0,0,1-.952.254c-.31.064-.684.162-1.114.292s-.925.256-1.456.448a35.392,35.392,0,0,0-3.684,1.468c-1.349.641-2.8,1.409-4.282,2.3a67.682,67.682,0,0,0-7.222,5.1c-.885.708-1.592,1.293-2.077,1.7a5.883,5.883,0,0,1-.778.608,6.014,6.014,0,0,1,.7-.7c.461-.436,1.148-1.049,2.018-1.78a57.777,57.777,0,0,1,7.2-5.194,46.339,46.339,0,0,1,4.324-2.29,31.763,31.763,0,0,1,3.735-1.416c.54-.18,1.041-.3,1.48-.407a10.637,10.637,0,0,1,1.133-.241A5.848,5.848,0,0,1,269.488,531.786Z" transform="translate(-247.922 -531.781)" fill="#354952"/></g><g transform="translate(58.887 20.674)"><path d="M240.322,544.834a6.981,6.981,0,0,1-1.709-.488,36.19,36.19,0,0,1-3.9-1.77l-3.785-1.989a12.929,12.929,0,0,1-1.556-.848,8.157,8.157,0,0,1,1.653.651c1,.454,2.345,1.147,3.829,1.909s2.84,1.418,3.844,1.842S240.336,544.787,240.322,544.834Z" transform="translate(-229.368 -539.735)" fill="#354952"/></g><g transform="translate(71.897 0.708)"><path d="M244.632,517.273c.048.007-.035,1.115-.127,2.907s-.172,4.268-.13,7,.2,5.209.347,6.995.264,2.888.217,2.9a3.658,3.658,0,0,1-.155-.76c-.081-.494-.178-1.213-.28-2.1-.2-1.784-.4-4.268-.44-7.02s.074-5.242.222-7.034c.074-.9.148-1.62.214-2.117A3.746,3.746,0,0,1,244.632,517.273Z" transform="translate(-244.056 -517.273)" fill="#354952"/></g><g transform="translate(74.296 5.195)"><path d="M247.65,522.581c.015.026-.1.1-.253.272a1.714,1.714,0,0,0-.381.883,1.652,1.652,0,0,0,.375,1.309,1.533,1.533,0,0,0,2.542-.946,1.65,1.65,0,0,0-.567-1.238,1.7,1.7,0,0,0-.861-.42c-.23-.036-.364-.012-.369-.041a.614.614,0,0,1,.379-.08,1.647,1.647,0,0,1,.992.372,1.831,1.831,0,0,1,.712,1.414,1.8,1.8,0,0,1-3.041,1.131,1.831,1.831,0,0,1-.378-1.538,1.658,1.658,0,0,1,.511-.932C247.5,522.6,247.644,522.57,247.65,522.581Z" transform="translate(-246.764 -522.321)" fill="#354952"/></g><g transform="translate(75.593 37.654)"><g transform="translate(0 2.04)"><path d="M253,561.132s27.65,4.218,28.769,4.468c1.68.376,2.117,6.337-.4,6.546-1.192.1-20.471,3.194-22.936,3.334s-10.2-1.892-10.2-1.892Z" transform="translate(-248.229 -561.132)" fill="#354952"/></g><g transform="translate(17.029 5.216)"><path d="M267.567,570.437A11.871,11.871,0,0,1,270,564.712a6.022,6.022,0,0,0-2.433,5.725Z" transform="translate(-267.455 -564.705)" fill="#1c262b"/></g><g transform="translate(14.116 4.574)"><path d="M264.249,569.423c.134.007.253-1.3.8-2.784s1.269-2.572,1.162-2.652a6.794,6.794,0,0,0-1.96,5.436Z" transform="translate(-264.166 -563.982)" fill="#1c262b"/></g><g transform="translate(11.164 4.019)"><path d="M261.167,568.964a9.514,9.514,0,0,1,1.445-5.6,5.089,5.089,0,0,0-1.445,5.6Z" transform="translate(-260.834 -563.358)" fill="#1c262b"/></g><g transform="translate(8.84)"><path d="M260.928,564.936a4.824,4.824,0,0,0,.049-2.033,9.546,9.546,0,0,0-.532-2.158,9.354,9.354,0,0,0-.547-1.2,1.5,1.5,0,0,0-.508-.607.716.716,0,0,0-.913.156,1.2,1.2,0,0,0-.267.8,5.317,5.317,0,0,0,.05.714,5.97,5.97,0,0,0,.322,1.3,8.066,8.066,0,0,0,1.069,1.955,5.448,5.448,0,0,0,1.395,1.472c.056-.05-.467-.622-1.132-1.653a8.9,8.9,0,0,1-.94-1.912,5.934,5.934,0,0,1-.275-1.212c-.037-.413-.1-.929.112-1.156a.261.261,0,0,1,.351-.072,1.132,1.132,0,0,1,.349.434,9.834,9.834,0,0,1,.547,1.137,10.9,10.9,0,0,1,.6,2.054C260.885,564.159,260.854,564.934,260.928,564.936Z" transform="translate(-258.21 -558.837)" fill="#1c262b"/></g><g transform="translate(6.292 5.708)"><path d="M260.533,565.38a3.744,3.744,0,0,0-1.759-.072,7.8,7.8,0,0,0-1.871.461,4.2,4.2,0,0,0-1.045.536,1.142,1.142,0,0,0-.458,1.3,1.346,1.346,0,0,0,1.078.843,2.453,2.453,0,0,0,1.2-.148,4.65,4.65,0,0,0,1.637-1.067,4.764,4.764,0,0,0,1.1-1.38,11.834,11.834,0,0,0-1.31,1.14,4.766,4.766,0,0,1-1.556.91,2.123,2.123,0,0,1-.995.106.918.918,0,0,1-.728-.56.7.7,0,0,1,.308-.8,4.1,4.1,0,0,1,.926-.5,9,9,0,0,1,1.766-.532C259.862,565.424,260.53,565.454,260.533,565.38Z" transform="translate(-255.333 -565.259)" fill="#1c262b"/></g><g transform="translate(20.932 5.986)"><path d="M272.217,570.328a14.557,14.557,0,0,1,.238-2.486,14.7,14.7,0,0,1,1.059-2.26,3.89,3.89,0,0,0-1.3,4.747Z" transform="translate(-271.862 -565.572)" fill="#1c262b"/></g><g transform="translate(2.761 12.531)"><path d="M251.346,574.629a5.551,5.551,0,0,0,1.094.364,22.971,22.971,0,0,0,3.088.568,42.591,42.591,0,0,0,10.334-.256c4.005-.526,7.6-1.143,10.206-1.564l3.081-.538a5.7,5.7,0,0,0,1.121-.258,5.545,5.545,0,0,0-1.147.084l-3.1.4-10.215,1.431a48.039,48.039,0,0,1-10.245.387C252.939,575.023,251.367,574.542,251.346,574.629Z" transform="translate(-251.346 -572.935)" fill="#1c262b"/></g><g transform="translate(2.041 11.871)"><path d="M250.535,575.253c.043.058.725-.46,1.9-1.152a9.363,9.363,0,0,1,4.964-1.453,8.063,8.063,0,0,1,4.689,2.087,15.633,15.633,0,0,0,1.732,1.4,8.414,8.414,0,0,0-1.524-1.639,10.715,10.715,0,0,0-1.973-1.452,6.384,6.384,0,0,0-2.905-.844,8.891,8.891,0,0,0-5.15,1.634A7.174,7.174,0,0,0,250.535,575.253Z" transform="translate(-250.534 -572.192)" fill="#1c262b"/></g></g></g><g transform="translate(93.314 36.101)"><g transform="translate(2.745 22.346)"><path d="M271.477,479.906c-.106.685-.466,19.174.635,20.869,1.732,2.665,7.31,7.438,10.777,6.133,5.627-2.117,6.9-14.065,6.8-11.847l-4.457-37.754H276.66l-.714,13.54-2.5,1.531a24.864,24.864,0,0,1-.957,4.642Z" transform="translate(-271.335 -457.308)" fill="#f7ad8b"/></g><path d="M276.306,454.515s-3.425-3.395-3.425-4.149-1.336-1.173-1.336-1.173l-2.172-1.09s-1.421-1.341-1.086-2.1a1.993,1.993,0,0,1,.918-1.006s.111-1.844,1.476-2.347c0,0-1.282-1.425,0-2.431s1.59-.587,1.59-.587-.142-1.09.609-1.174S279,437.037,279,437.037a10.917,10.917,0,0,1,2.147,1.425c.668.671,1,1.09,1,1.09a8.207,8.207,0,0,0,1.336-2.515c.335-1.257.836-5.029,4.594-4.862v.923a10.18,10.18,0,0,0-1.5,3.688c-.5,2.348-1.42,7.538-1.42,7.538l-.282,10.192Z" transform="translate(-268.236 -432.169)" fill="#f7ad8b"/><g transform="translate(4.43 22.259)"><path d="M273.576,494.957a2.37,2.37,0,0,1-.074-.38c-.035-.251-.109-.619-.146-1.1a23.9,23.9,0,0,1-.058-4.077,50.1,50.1,0,0,1,.8-5.994c.407-2.238.959-4.678,1.369-7.262a111.918,111.918,0,0,0,1.035-13.373c.06-1.7.109-3.084.144-4.07q.035-.693.055-1.106a2.268,2.268,0,0,1,.036-.385,2.359,2.359,0,0,1,.012.387q0,.412-.01,1.107c-.016.986-.039,2.371-.066,4.072a101.869,101.869,0,0,1-.966,13.406c-.413,2.6-.972,5.035-1.39,7.267a53.21,53.21,0,0,0-.852,5.964,26.221,26.221,0,0,0-.019,4.058c.021.48.08.849.1,1.1A2.368,2.368,0,0,1,273.576,494.957Z" transform="translate(-273.238 -457.21)" fill="#e88559"/></g><g transform="translate(4.105 6.836)"><path d="M279.516,439.939c0,.034-.373.023-.968.1s-1.428.166-2.344.249a22.932,22.932,0,0,1-3.332.182,22.882,22.882,0,0,1,3.31-.425c.918-.083,1.748-.146,2.352-.178A2.272,2.272,0,0,1,279.516,439.939Z" transform="translate(-272.871 -439.86)" fill="#e88559"/></g><g transform="translate(2.593 10.41)"><path d="M277.743,444.413a5.236,5.236,0,0,1-.968-.035c-.593-.036-1.415-.052-2.328-.072a18.157,18.157,0,0,1-2.338-.175,2.98,2.98,0,0,1-.945-.238,5.527,5.527,0,0,1,.965.067c.593.052,1.413.083,2.324.1a22.714,22.714,0,0,1,2.337.144A3.084,3.084,0,0,1,277.743,444.413Z" transform="translate(-271.164 -443.881)" fill="#e88559"/></g><g transform="translate(1.304 12.807)"><path d="M276.342,447.963a4.072,4.072,0,0,1-.988-.116c-.6-.1-1.437-.262-2.353-.452s-1.744-.376-2.339-.522a4.035,4.035,0,0,1-.953-.286,4.167,4.167,0,0,1,.989.117c.6.1,1.437.262,2.352.452s1.741.375,2.337.521A4.127,4.127,0,0,1,276.342,447.963Z" transform="translate(-269.709 -446.577)" fill="#e88559"/></g></g></g></g></svg>