<svg xmlns="http://www.w3.org/2000/svg" xmlns:xlink="http://www.w3.org/1999/xlink" width="290" height="297" viewBox="0 0 290 297"><defs><linearGradient id="a" x1="0.831" y1="0.446" x2="1.816" y2="0.655" gradientUnits="objectBoundingBox"><stop offset="0" stop-color="#796aab"/><stop offset="1" stop-color="#cb85b8"/></linearGradient><linearGradient id="b" x1="0.875" y1="0.456" x2="1.826" y2="0.658" xlink:href="#a"/></defs><path d="M600.707,365.451c8.159,80.123-39.215,108.422-121.875,108.422S322.549,408.921,314.39,328.8s92.892-142.128,175.55-142.128S592.547,285.327,600.707,365.451Z" transform="translate(-311.614 -186.668)" opacity="0.11" fill="url(#a)"/><path d="M590.332,332.377c7.712,75.735-51.745,137.131-132.8,137.131s-137.167-15.5-144.879-91.236,82.2-192.509,201.672-186.238C595.7,196.3,582.619,256.643,590.332,332.377Z" transform="translate(-312.192 -185.171)" opacity="0.15" fill="url(#b)"/><g transform="translate(7.88 63.186)"><g transform="translate(97.065)"><path d="M415.59,280.673l12.053-15.356s-.241-6.977-8.493-5.142L406.09,270.56Z" transform="translate(-385.811 -228.463)" fill="#ea84a6"/><path d="M424.345,270.663l16.195-27.13-2.166-1.24-.954-.546-21.536,23.723Z" transform="translate(-382.544 -233.758)" fill="#ea84a6"/><path d="M435.676,245.337l4.285-4.073-.488-4.514-6.157-1.185-2.807,3.669,1.875,4.634Z" transform="translate(-377.664 -235.565)" fill="#ea84a6"/><path d="M390.884,281.084s1.108,14.036,12.555,15.354c0,0,2.991-2.082,19-19.162l-10.854-10.139S404.776,271.227,390.884,281.084Z" transform="translate(-390.884 -226.339)" fill="#87a72a"/></g><path d="M382.89,322.307a32.869,32.869,0,0,0-1.146,16.308c2.119,10.41,10.049,40.944,10.049,40.944L386.6,432.367l5.425,5.686,20.254-62.1s-.668-42.788-1.364-56.278l-14.3-1.831Z" transform="translate(-297.055 -211.522)" fill="#1d3f8e"/><path d="M391.788,411.654l-2.286,6.712a1.738,1.738,0,0,1-1.511,1.158l-.335.028-3.7-11.907a.9.9,0,0,1,.128-.958,1.514,1.514,0,0,1,1.1-.615l.792.01C386.055,407.852,390.82,411.11,391.788,411.654Z" transform="translate(-296.157 -185.738)" fill="#131c41"/><path d="M384.55,323.779a26.849,26.849,0,0,0-1.875,16.08c2.269,10.382,3.709,36.147,3.709,36.147l-37.954-5.728-3.854,6.9,47,13.725a7.009,7.009,0,0,0,5.427-.632,6.631,6.631,0,0,0,3.206-4.289c3.617-16.013,12.059-54.845,11.357-65.46l-14.319-1.639Z" transform="translate(-309.269 -211.216)" fill="#2c4593"/><path d="M347.784,366.315l-7.295.013a1.753,1.753,0,0,1-1.61-1.025l-.132-.3,10.494-7.159a.979.979,0,0,1,.979-.182,1.49,1.49,0,0,1,.948.817l.239.731C349.7,359.845,348.012,365.253,347.784,366.315Z" transform="translate(-311.213 -199.903)" fill="#131c41"/><path d="M381.473,247.359s-13.312-1.486-8.627,13.672c0,0-7.366.469-2.729,14.4s20.178,8.614,20.178,8.614Z" transform="translate(-301.258 -232.13)" fill="#131c41"/><path d="M378.249,247.905s9.189-5.082,14.887-.62a17.114,17.114,0,0,1,6.172,11.294s2.913-3.2,7.359,5.8-2.425,24.035-20.707,18.337Z" transform="translate(-298.034 -232.676)" fill="#131c41"/><path d="M380.475,268s1.79,14.425-.033,15.8l4.25,6.389,8.1-3.709,1-6.761-2.457-1.238-1.815-9.141Z" transform="translate(-297.302 -226.086)" fill="#ea84a6"/><path d="M396.4,260.527c.32,6.84-1.608,13.247-6.047,14.664-5.029,1.608-13.979-5.62-15.77-12.456s4.148-11.034,9.279-12.3S396.069,253.482,396.4,260.527Z" transform="translate(-299.367 -231.283)" fill="#ea84a6"/><path d="M372.631,304.881s5.844,10.423,4.909,15.038-3.784,22.582-3.784,22.582,15.953,5.582,28.356,3.435,13.584-5.342,13.584-5.342-4.684-21.592-3.976-25.578c.388-2.189,1-10.824,1.263-14.611a6.027,6.027,0,0,0-.77-3.38l-11.677-20.782-3.527.234s-3.361,9.06-12.3,4.385l-5.273-.977-8.3,18.585Z" transform="translate(-300.407 -223.678)" fill="#8db52b"/><path d="M382.266,261.616a4.117,4.117,0,0,1-3.079,5.015,4.269,4.269,0,0,1-5.176-2.982,4.12,4.12,0,0,1,3.079-5.016A4.271,4.271,0,0,1,382.266,261.616Z" transform="translate(-299.492 -228.862)" fill="#ea84a6"/><path d="M394.362,258.548a4.119,4.119,0,0,1-3.079,5.015,4.272,4.272,0,0,1-5.177-2.984,4.119,4.119,0,0,1,3.079-5.015A4.272,4.272,0,0,1,394.362,258.548Z" transform="translate(-295.457 -229.758)" fill="#ea84a6"/><g transform="translate(0 28.929)"><path d="M360.907,290.467l-17.567-9.086s-2.783-6.438,5.507-8.1l16.34,4.16Z" transform="translate(-309.831 -253.473)" fill="#ea84a6"/><path d="M349.87,284.323l-26.4-18.112,1.435-2,.632-.882,29.786,12.857Z" transform="translate(-316.309 -256.381)" fill="#ea84a6"/><path d="M325.249,267.787l-5.648-1.97-1.5-4.3,5.086-3.565,4.131,2.2.291,4.97Z" transform="translate(-318.101 -257.952)" fill="#ea84a6"/><path d="M385.1,280.023s3.121,12.62-6.716,18.444c0,0-1.7-.1-23.605-9.15l5.5-13.6S368.228,276.68,385.1,280.023Z" transform="translate(-305.865 -252.76)" fill="#8db52b"/></g><path d="M373.321,263.358s9.97-6.192,9.884-13.828l-10.138,3.176Z" transform="translate(-299.763 -231.484)" fill="#131c41"/><path d="M380.785,251.445s5.7,7.169,13.48,7.121l-1.4-7.534-7.2-4.05Z" transform="translate(-297.188 -232.228)" fill="#131c41"/><path d="M387.264,267.593a3.807,3.807,0,0,0,2.931-4.581l-7.659,1.739A3.939,3.939,0,0,0,387.264,267.593Z" transform="translate(-296.604 -227.544)" fill="#fff"/></g><g transform="translate(177.623 6.295)"><path d="M476.745,314.191l-4.725,62.178,31.849-15.075,3.685,6.787-32.765,20.267a10.612,10.612,0,0,1-9.7.73,10.067,10.067,0,0,1-6.02-7.407c-4.12-22.305-11.473-62.911-11.851-70.57l15.235-10.132Z" transform="translate(-444.767 -159.561)" fill="#1d3f8e"/><path d="M492.793,355.382l10.2,3.652a2.248,2.248,0,0,0,2.429-.609l.225-.255-10.173-12.293a2.077,2.077,0,0,0-1.566-.526,1.915,1.915,0,0,0-1.455.634l-3.519,2.8C490.738,350.163,492.932,354.025,492.793,355.382Z" transform="translate(-430.846 -146.591)" fill="#131c41"/><path d="M488.106,314.709l-16.185,69.113,8.921,36.723,1.612,3.017-4.938,5.028-20.891-42.437s1.523-60.1,3.761-75.171l17.264-11.246Z" transform="translate(-441.628 -159.921)" fill="#2c4593"/><path d="M472.011,400.55l4.2,9.291a2.124,2.124,0,0,0,2.058,1.224l.332-.018,2-15.042a1.878,1.878,0,0,0-.669-1.4,1.849,1.849,0,0,0-1.426-.553l-2.953-1.163C475.769,395.018,473.074,399.737,472.011,400.55Z" transform="translate(-436.494 -132.7)" fill="#131c41"/><path d="M461.627,263.51s4.424-.677,5.07-1.116,2.537-11.5,2.537-11.5l8.739.912-.193,11.622a35.982,35.982,0,0,0,3.9,1.368l-6.655,9.161-10.458-4.637Z" transform="translate(-439.958 -174.195)" fill="#ea84a6"/><path d="M482.641,248.659c-2.162,6.491-5.161,9.929-10.9,9.194-5.078-.651-9.509-11.824-7.347-18.316s9.258-6.97,14.132-5.445S484.8,242.167,482.641,248.659Z" transform="translate(-439.223 -179.316)" fill="#ea84a6"/><path d="M449.182,195.152l1.778,4.792,4.828,1.112,4.534-5.395-3.923-4.121-5.745.032Z" transform="translate(-444.11 -191.539)" fill="#ea84a6"/><path d="M449.831,268.252l-4.452-25.083,6.835-45.2,4.842,1.212L457,242.2l5.039,17.219Z" transform="translate(-445.379 -189.661)" fill="#ea84a6"/><g transform="translate(53.521 111.395)"><path d="M499.535,321.874l4.633,2.4.432,4.79-6.169,3.56-3.636-4.361.87-5.5Z" transform="translate(-482.414 -264.846)" fill="#ea84a6"/><path d="M485.511,287.3l15.376,9.831-2.123,38.544,3.868-.9,8.315-41.959-12.356-15.069Z" transform="translate(-485.511 -277.743)" fill="#ea84a6"/></g><path d="M3.1.039A3.165,3.165,0,0,1,6.234,3.118a2.977,2.977,0,0,1-3.059,3A3.165,3.165,0,0,1,.039,3.04,2.977,2.977,0,0,1,3.1.039Z" transform="translate(38.908 65.91) rotate(-26.699)" fill="#ea84a6"/><path d="M464.77,238.731s-1.934-4.423.152-5.562,7.028-5.126,10.458-3.25,6.561,5.683,11.949,4.564c0,0-.693,7.05-3.794,8.309,0,0-10.513-4.574-11.541-6.744C471.994,236.049,467.187,238.658,464.77,238.731Z" transform="translate(-439.182 -180.468)" fill="#131c41"/><path d="M513.325,288.626l-19.176-19.936-9.269-2.042-2.3-.79a6.833,6.833,0,0,1-6.629,5.2,6.716,6.716,0,0,1-5.335-6.449l-2.418.3-6.748-21.017c-4.48-1.336-13.646,6.928-13.646,6.928l1.568,25.387.8,11.474-3.041,39.157c7.858,5.022,18.667,7.923,21.655,8.663,3.083-.107,14.282-.709,23.064-3.994l-.2-20.384,5.16-12.523,9.579,4.872S516.884,293.57,513.325,288.626Z" transform="translate(-444.795 -176.284)" fill="#df3778"/><path d="M479.661,250.118l-8.335-3.517h0l-4.73,1.365-2.333-5.14L463,255.973a4.858,4.858,0,0,0,4.41,5.306l4.476.467,4.476.468a4.937,4.937,0,0,0,5.475-4.273l1.46-13.129Z" transform="translate(-439.511 -176.552)" fill="#131c41"/><path d="M469.514,251.376a3.475,3.475,0,0,0,3.736-3.171l-7.007-.45A3.441,3.441,0,0,0,469.514,251.376Z" transform="translate(-438.421 -175.111)" fill="#fff"/></g></svg>