<svg id="eev" xmlns="http://www.w3.org/2000/svg" xmlns:xlink="http://www.w3.org/1999/xlink" width="61.109" height="78" viewBox="0 0 61.109 78">
  <defs>
    <clipPath id="clip-path">
      <path id="Caminho_43300" data-name="Caminho 43300" d="M241.821,184.3a30.555,30.555,0,1,0-30.555,30.759A30.655,30.655,0,0,0,241.821,184.3Z" transform="translate(-180.712 -153.539)" fill="none"/>
    </clipPath>
  </defs>
  <path id="Caminho_43289" data-name="Caminho 43289" d="M241.821,184.3a30.555,30.555,0,1,0-30.555,30.759A30.655,30.655,0,0,0,241.821,184.3Z" transform="translate(-180.712 -137.055)" fill="#1a1d26"/>
  <rect id="Retângulo_1149" data-name="Retângulo 1149" width="13.088" height="8.841" transform="translate(24.011 48.173)" fill="#c6cedb"/>
  <g id="Grupo_39102" data-name="Grupo 39102" transform="translate(3.089)">
    <path id="Caminho_43290" data-name="Caminho 43290" d="M246.325,176.473c4.307,0,7.827-1.025,7.827-6.892,0-5.824-3.52-6.891-7.827-6.891Z" transform="translate(-199.221 -139.159)" fill="#e6ebed"/>
    <path id="Caminho_43291" data-name="Caminho 43291" d="M188.585,170.164a15.747,15.747,0,0,0,15.65,15.752H222a15.744,15.744,0,0,0,15.646-15.752v-4.506A15.743,15.743,0,0,0,222,149.908H204.235a15.746,15.746,0,0,0-15.65,15.75Z" transform="translate(-185.651 -136.22)" fill="#e6ebed"/>
    <path id="Caminho_43292" data-name="Caminho 43292" d="M223.857,180.068a9.644,9.644,0,0,0,9.6-9.667h0a9.643,9.643,0,0,0-9.6-9.664H206.093a9.642,9.642,0,0,0-9.6,9.664h0a9.643,9.643,0,0,0,9.6,9.667Z" transform="translate(-187.51 -138.71)" fill="#c6cedb"/>
    <g id="Grupo_39101" data-name="Grupo 39101" transform="translate(20.619)">
      <path id="Caminho_43293" data-name="Caminho 43293" d="M219.54,143.89v-5.984a2.962,2.962,0,1,0-1.975,0v5.983c-4.921.389-5.861,3.763-5.861,7.837h13.691C225.395,147.653,224.492,144.279,219.54,143.89Z" transform="translate(-211.704 -132.133)" fill="#e6ebed"/>
      <path id="Caminho_43294" data-name="Caminho 43294" d="M217.694,135.718a2.958,2.958,0,0,1,4.113-2.741,2.956,2.956,0,0,0-5.024,2.132,2.984,2.984,0,0,0,1.808,2.747A2.983,2.983,0,0,1,217.694,135.718Z" transform="translate(-212.898 -132.133)" fill="#c6cedb"/>
    </g>
    <path id="Caminho_43295" data-name="Caminho 43295" d="M204.235,149.908h3.549c-7.2,0-15.892,7.087-15.892,15.75v4.506c0,8.664,7.646,15.752,16.252,15.752h-3.91a15.747,15.747,0,0,1-15.65-15.752v-4.506A15.746,15.746,0,0,1,204.235,149.908Z" transform="translate(-185.651 -136.22)" fill="#c6cedb"/>
    <path id="Caminho_43296" data-name="Caminho 43296" d="M190.191,162.873c-3.148.435-5.441,2.014-5.441,6.75,0,4.483,2.085,6.147,5.007,6.677C190.289,176.4,190.687,162.806,190.191,162.873Z" transform="translate(-184.75 -139.201)" fill="#c6cedb"/>
  </g>
  <g id="Grupo_39103" data-name="Grupo 39103" transform="translate(19.376 29.106)">
    <path id="Caminho_43297" data-name="Caminho 43297" d="M211.183,172.515a2.571,2.571,0,1,0-2.57,2.587A2.58,2.58,0,0,0,211.183,172.515Z" transform="translate(-206.041 -169.93)" fill="#2e3242"/>
    <path id="Caminho_43298" data-name="Caminho 43298" d="M233.686,172.515a2.569,2.569,0,1,0-2.568,2.587A2.576,2.576,0,0,0,233.686,172.515Z" transform="translate(-211.331 -169.93)" fill="#2e3242"/>
  </g>
  <g id="Grupo_39105" data-name="Grupo 39105" transform="translate(0 16.484)">
    <g id="Grupo_39104" data-name="Grupo 39104" clip-path="url(#clip-path)">
      <path id="Caminho_43299" data-name="Caminho 43299" d="M236.982,214.21c0-7.046-13.833-11.416-23.571-11.416-9.662,0-23.574,4.37-23.574,11.416,0,.151-.008,17.121,0,17.263.332,6.542,16.721,5.477,23.574,5.477,6.918,0,23.388,1.144,23.571-5.628C236.984,231.243,236.982,214.292,236.982,214.21Z" transform="translate(-182.856 -164.865)" fill="#e6ebed"/>
    </g>
  </g>
</svg>
