<svg xmlns="http://www.w3.org/2000/svg" width="339.68" height="282.449" viewBox="0 0 339.68 282.449"><g transform="translate(-82.906 -265.581)"><path d="M422.586,547.242c0,.436-74.6.788-166.606.788-92.037,0-166.623-.352-166.623-.788s74.586-.788,166.623-.788C347.984,546.454,422.586,546.807,422.586,547.242Z" fill="#1c262b"/></g><g transform="translate(-82.906 -265.581)"><path d="M249.432,546.627l-90.863-.057c-10.928-.006-19.783-9.319-19.781-20.8l.045-239.389c0-11.49,8.87-20.8,19.8-20.8l90.863.056c10.928.007,19.782,9.32,19.78,20.8l-.044,239.39C269.234,537.322,260.366,546.634,249.432,546.627Z" fill="#1c262b"/><path d="M249.4,274.1l-17.616-.011a4.5,4.5,0,0,0-4.279,4.7v3.359a4.5,4.5,0,0,1-4.278,4.7l-34.339-.022a4.507,4.507,0,0,1-4.277-4.7v-3.358a4.506,4.506,0,0,0-4.277-4.7l-6.2,0-15.419-.01c-7.657,0-13.868,6.517-13.869,14.565l-.044,233.661c0,8.044,6.2,14.566,13.854,14.571l90.681.055c7.657.005,13.867-6.516,13.869-14.564l.044-233.662C263.258,280.631,257.057,274.109,249.4,274.1Z" fill="#fff"/><path d="M164.008,518.418v6.857a.753.753,0,0,1-1.156.637l-5.391-3.429a.755.755,0,0,1,0-1.274l5.391-3.428A.753.753,0,0,1,164.008,518.418Z" fill="#d8d8d8"/><path d="M208.3,521.783a4.727,4.727,0,1,1-4.727-4.737A4.732,4.732,0,0,1,208.3,521.783Z" fill="#d8d8d8"/><path d="M1.869,0H6.851A1.869,1.869,0,0,1,8.72,1.869v5A1.869,1.869,0,0,1,6.851,8.74H1.87A1.87,1.87,0,0,1,0,6.871v-5A1.869,1.869,0,0,1,1.869,0Z" transform="translate(242.237 517.662)" fill="#d8d8d8"/><path d="M255.922,298.713a1.6,1.6,0,1,1-1.6-1.6A1.6,1.6,0,0,1,255.922,298.713Z" fill="#1c262b"/><circle cx="1.603" cy="1.603" r="1.603" transform="translate(252.716 301.496)" fill="#1c262b"/><circle cx="1.603" cy="1.603" r="1.603" transform="translate(252.716 305.881)" fill="#1c262b"/><path d="M158.746,297.955l-6.544,4.906h1.667v5.866l3.528.012V304.35l2.781-.012v4.389h3.412V302.8l1.7-.018Z" fill="#1c262b"/><path d="M263.678,314.906c0,.1-26.706.173-59.642.173s-59.648-.078-59.648-.173,26.7-.173,59.648-.173S263.678,314.811,263.678,314.906Z" fill="#d8d8d8"/></g><g transform="translate(-82.906 -265.581)"><path d="M157.371,397.835c-7.768,4.023-13.724,10.95-18.006,18.578s-7.043,16-9.777,24.306L127.2,483.572c9.037-15.375,16.291-33.45,18.251-51.176l-6.014-.536c4.032-.616,7.417-3.538,9.571-7s3.262-7.459,4.344-11.392l-7.338,1.09A27.194,27.194,0,0,0,157.371,397.835Z" fill="#354952"/><g opacity="0.3"><path d="M157.371,397.835c-7.768,4.023-13.724,10.95-18.006,18.578s-7.043,16-9.777,24.306L127.2,483.572c9.037-15.375,16.291-33.45,18.251-51.176l-6.014-.536c4.032-.616,7.417-3.538,9.571-7s3.262-7.459,4.344-11.392l-7.338,1.09A27.194,27.194,0,0,0,157.371,397.835Z" fill="#0c2372"/></g><path d="M125.858,493.613s-19.617-23.48-19.39-45.894h7.924s-8.607-5.66-7.926-8.83.907-15.169.907-15.169l7.245,1.811s-5.434-2.717-6.113-7.018,1.585-24.226,1.585-24.226,8.83,9.283,11.547,18.792,9.848,20.6,7.754,49.583S125.858,493.613,125.858,493.613Z" fill="#005fab"/><path d="M135.8,495.829s21.252-14.158,25.974-32.228l-6.371-1.734s8.158-2.667,8.3-5.364,2.59-12.394,2.59-12.394l-6.221-.129s4.962-1,6.45-4.306,4.026-19.823,4.026-19.823-9.13,5.531-13.395,12.582-12.425,14.409-17.082,38.166S135.8,495.829,135.8,495.829Z" fill="#005fab"/><path d="M115.449,414.759a1.329,1.329,0,0,1,.069.243l.17.723.62,2.787c.272,1.21.587,2.693.93,4.421s.755,3.69,1.152,5.87c.839,4.354,1.724,9.558,2.637,15.349.883,5.795,1.766,12.179,2.551,18.9.769,6.724,1.367,13.143,1.828,18.987.433,5.847.759,11.117.935,15.547.111,2.214.163,4.218.218,5.978s.091,3.276.1,4.516c.014,1.224.025,2.182.032,2.854v.742a1.379,1.379,0,0,1-.012.254,1.389,1.389,0,0,1-.024-.253l-.034-.742c-.022-.671-.055-1.629-.1-2.852-.033-1.239-.083-2.754-.162-4.512s-.143-3.762-.269-5.974c-.207-4.426-.558-9.691-1.008-15.533-.479-5.839-1.085-12.253-1.854-18.972-.784-6.715-1.657-13.1-2.523-18.89-.894-5.789-1.754-11-2.562-15.352-.382-2.183-.772-4.149-1.1-5.878s-.62-3.217-.871-4.431l-.557-2.8-.136-.73A1.35,1.35,0,0,1,115.449,414.759Z" fill="#1c262b"/><path d="M123.137,507.99s-17.952-20.368-23.526-32.681l4.208-1.8a10.9,10.9,0,0,1-8.54-2.8,32.321,32.321,0,0,1-5.805-7.189l5.544-.937a20.608,20.608,0,0,1-12.112-9.381c6.542,1.075,12.459,4.668,17.336,9.159a86.336,86.336,0,0,1,10.505,12.172,41.478,41.478,0,0,1,4.079,6.707C117.842,487.48,123.147,500.51,123.137,507.99Z" fill="#005fab"/><path d="M162.059,431.706a.987.987,0,0,1-.084.207l-.276.592-1.1,2.259c-.964,1.955-2.328,4.8-3.979,8.328s-3.561,7.758-5.608,12.486c-2.029,4.735-4.191,9.97-6.341,15.512s-4.062,10.878-5.745,15.747c-1.666,4.876-3.1,9.288-4.251,13.012s-2.057,6.743-2.659,8.838l-.709,2.407-.193.624a1.1,1.1,0,0,1-.078.21,1.139,1.139,0,0,1,.043-.219l.16-.633.648-2.426c.562-2.106,1.431-5.139,2.555-8.873s2.532-8.158,4.183-13.043c1.668-4.878,3.584-10.215,5.724-15.769s4.324-10.782,6.371-15.514c2.065-4.724,3.994-8.947,5.679-12.463s3.079-6.347,4.08-8.284c.492-.953.879-1.7,1.152-2.231l.308-.576A1.143,1.143,0,0,1,162.059,431.706Z" fill="#1c262b"/><path d="M124.66,516.719a1.578,1.578,0,0,1-.084-.375l-.174-1.081c-.068-.471-.155-1.045-.279-1.709s-.236-1.424-.416-2.254c-.322-1.667-.783-3.637-1.37-5.8-.606-2.16-1.351-4.513-2.259-6.939s-1.919-4.679-2.891-6.7c-.991-2.014-1.947-3.8-2.808-5.26-.413-.742-.828-1.389-1.177-1.967s-.66-1.069-.919-1.466l-.585-.926a1.591,1.591,0,0,1-.184-.337,1.666,1.666,0,0,1,.241.3l.639.891c.278.387.609.866.971,1.438s.8,1.209,1.224,1.945c.891,1.453,1.873,3.23,2.883,5.245.993,2.023,2,4.288,2.93,6.72s1.65,4.8,2.242,6.978c.573,2.179,1.011,4.162,1.3,5.841.165.836.264,1.6.367,2.269s.174,1.247.222,1.721l.109,1.091A1.684,1.684,0,0,1,124.66,516.719Z" fill="#1c262b"/><rect width="39.29" height="8.015" transform="translate(109.058 511.928)" fill="#e7594d"/><path d="M112.8,519.942l4.25,26.958h23.741l3.961-26.958Z" fill="#e7594d"/><path d="M145.937,519.942c0,.095-7.433.173-16.6.173s-16.6-.078-16.6-.173,7.431-.173,16.6-.173S145.937,519.847,145.937,519.942Z" fill="#1c262b"/></g><g transform="translate(-82.906 -265.581)"><rect width="113.689" height="80.8" rx="7.875" transform="translate(277.407 466.397)" fill="#354952"/><rect width="47.112" height="19.132" rx="9.566" transform="translate(351.155 499.376)" fill="#354952"/><path d="M389.425,518.839H360a9.184,9.184,0,0,1-9.174-9.173v-1.448A9.185,9.185,0,0,1,360,499.044h29.428a9.184,9.184,0,0,1,9.173,9.174v1.448A9.183,9.183,0,0,1,389.425,518.839ZM360,499.707a8.521,8.521,0,0,0-8.51,8.511v1.448a8.52,8.52,0,0,0,8.51,8.51h29.428a8.52,8.52,0,0,0,8.51-8.51v-1.448a8.521,8.521,0,0,0-8.51-8.511Z" fill="#1c262b"/><circle cx="6.798" cy="6.798" r="6.798" transform="matrix(0.575, -0.818, 0.818, 0.575, 352.247, 510.591)" fill="#1c262b"/></g><g transform="translate(-82.906 -265.581)"><path d="M303.483,320.151a24.771,24.771,0,0,0,7.907,18.7q1.765-5.12,3.533-10.238" fill="#1c262b"/><path d="M330.125,299.787a15.01,15.01,0,0,0-10.088-1.218,31.805,31.805,0,0,0-9.542,3.945,15.584,15.584,0,0,0-4.56,3.557c-2.2,2.771-4.38,7.323-4.592,10.857-.172,2.857.923,10.011,2.13,12.606,1.109,2.382,6.3,4.2,8.856,4.783l23.493-27.322A11.894,11.894,0,0,0,330.125,299.787Z" fill="#1c262b"/><path d="M334.175,303.472l-5.632-1.007c3.079,7.331,3.913,24.1,5.675,31.852,2.075-3.012,6.9-12.187,6.638-15.836S340.866,302.85,334.175,303.472Z" fill="#1c262b"/><path d="M337.395,315.424c-.367-5.625-4.11-12.52-9.715-11.915l-12.969,3.309a9.618,9.618,0,0,0-7.237,8.858c-.015.213-.036-.047-.033.114l2.895,33.584,9.735,19.32h0l8.6-16.3c0-2.739,0-8.883,0-8.869s7.186-1.21,8.655-10.592C338.054,328.27,337.8,321.674,337.395,315.424Z" fill="#f7ad8b"/><path d="M333.377,323.12a1.2,1.2,0,0,1-1.157,1.216,1.151,1.151,0,0,1-1.243-1.082,1.2,1.2,0,0,1,1.156-1.216A1.151,1.151,0,0,1,333.377,323.12Z" fill="#1c262b"/><path d="M335.987,319.1c-.149.157-1.062-.515-2.356-.509-1.293-.013-2.241.655-2.382.5-.069-.07.082-.353.495-.655a3.294,3.294,0,0,1,1.907-.592,3.162,3.162,0,0,1,1.875.6C335.925,318.745,336.06,319.028,335.987,319.1Z" fill="#1c262b"/><path d="M322.527,323.12a1.2,1.2,0,0,1-1.157,1.216,1.151,1.151,0,0,1-1.242-1.082,1.2,1.2,0,0,1,1.156-1.216A1.15,1.15,0,0,1,322.527,323.12Z" fill="#1c262b"/><path d="M323.7,319.1c-.149.157-1.063-.515-2.356-.509-1.293-.012-2.241.655-2.382.5-.069-.07.081-.353.495-.655a3.3,3.3,0,0,1,1.906-.593,3.179,3.179,0,0,1,1.876.6C323.632,318.745,323.768,319.028,323.7,319.1Z" fill="#1c262b"/><path d="M327.742,329.264a8.55,8.55,0,0,1,2.1-.384c.33-.035.643-.1.7-.327a1.669,1.669,0,0,0-.223-.979q-.468-1.2-.983-2.514a43.236,43.236,0,0,1-2.209-6.578,43.364,43.364,0,0,1,2.734,6.384q.492,1.324.942,2.53a1.916,1.916,0,0,1,.174,1.3.83.83,0,0,1-.543.484,2.231,2.231,0,0,1-.561.079A8.374,8.374,0,0,1,327.742,329.264Z" fill="#1c262b"/><path d="M316.23,340.189s3.052,6.442,12.437,5.544l0-2.206A23.625,23.625,0,0,1,316.23,340.189Z" fill="#e88559"/><path d="M323.289,314.422c-.127.352-1.419.188-2.937.374-1.523.156-2.746.6-2.948.288-.09-.15.122-.482.617-.824a5.146,5.146,0,0,1,4.483-.505C323.062,313.979,323.344,314.255,323.289,314.422Z" fill="#1c262b"/><path d="M335.565,315.14c-.227.294-1.12-.009-2.192-.021-1.071-.05-1.979.2-2.189-.1-.092-.149.05-.444.447-.723a3.171,3.171,0,0,1,3.529.1C335.54,314.694,335.665,315,335.565,315.14Z" fill="#1c262b"/><path d="M334.847,306.859a4.123,4.123,0,0,0-3.643-2.336,8.008,8.008,0,0,0-4.326,1.261c-5.586,3.229-8.457,11.027-13.976,14.367-1.357.822-3.124.069-4.278,1.157a3.981,3.981,0,0,0-1.265,4.28,13.124,13.124,0,0,1-1.915-3.239,4.429,4.429,0,0,1,.155-3.655c.478-.828,1.321-1.459,1.552-2.386a12.59,12.59,0,0,0-.082-2.508,5.468,5.468,0,0,1,.859-2.393,24.333,24.333,0,0,1,8.965-9.431,15.867,15.867,0,0,1,8.231-2.129,12.14,12.14,0,0,1,7.831,3.108c1.235,1.151,2.532,2.342,1.892,3.9" fill="#1c262b"/><path d="M308.759,322.471c-.1-.269-4.991-2.035-5.056,3.165-.063,5.052,5.034,4.057,5.045,3.912S308.759,322.471,308.759,322.471Z" fill="#f7ad8b"/><path d="M307.207,327.62c-.022-.016-.089.061-.238.128a.881.881,0,0,1-.658.007,2.177,2.177,0,0,1-.989-1.963,2.906,2.906,0,0,1,.258-1.258,1.017,1.017,0,0,1,.668-.669.447.447,0,0,1,.517.246c.067.142.034.242.06.251s.11-.083.071-.292a.56.56,0,0,0-.2-.319.669.669,0,0,0-.485-.133,1.238,1.238,0,0,0-.927.775,2.984,2.984,0,0,0-.318,1.4,2.285,2.285,0,0,0,1.263,2.194.945.945,0,0,0,.806-.126C307.2,327.742,307.224,327.629,307.207,327.62Z" fill="#e88559"/><path d="M306.749,319.875a2.048,2.048,0,0,0,.3-.171c.193-.123.491-.286.847-.538a17.311,17.311,0,0,0,2.727-2.482,48.6,48.6,0,0,0,3.336-4.333,39.686,39.686,0,0,1,4.169-5.191,15.787,15.787,0,0,1,2.69-2.126,13.092,13.092,0,0,1,2.906-1.319,14.372,14.372,0,0,1,5.351-.657,13.8,13.8,0,0,1,3.585.7c.415.126.722.266.935.347a2.129,2.129,0,0,0,.33.117,1.826,1.826,0,0,0-.311-.16,8.6,8.6,0,0,0-.924-.389,13.1,13.1,0,0,0-3.6-.781,14.292,14.292,0,0,0-5.428.618,13.081,13.081,0,0,0-2.958,1.328,15.892,15.892,0,0,0-2.735,2.154,38.706,38.706,0,0,0-4.181,5.233,51.705,51.705,0,0,1-3.284,4.347,18.642,18.642,0,0,1-2.658,2.518c-.345.262-.634.437-.818.572A1.917,1.917,0,0,0,306.749,319.875Z" fill="#354952"/><path d="M308.02,321.3a7.784,7.784,0,0,0,.494,4.063c.638,1.226,2.246,2.06,3.445,1.374.979-.559,1.272-1.813,1.438-2.928.479-3.217.7-6.47,1.2-9.683Z" fill="#1c262b"/><path d="M333.6,304.455c-.005.03-.446-.084-1.255-.109a8.639,8.639,0,0,0-3.344.61,11.026,11.026,0,0,0-2.094,1.079,22.632,22.632,0,0,0-2.161,1.65,25.96,25.96,0,0,0-4.23,4.56c-.641.9-1.21,1.828-1.826,2.685a12.854,12.854,0,0,1-2.025,2.278,22.526,22.526,0,0,1-4.269,2.856c-1.293.683-2.373,1.161-3.118,1.492l-.864.368a1.408,1.408,0,0,1-.31.11,1.477,1.477,0,0,1,.286-.162l.841-.416c.731-.361,1.8-.867,3.07-1.569a23.29,23.29,0,0,0,4.191-2.876,12.793,12.793,0,0,0,1.972-2.242c.6-.849,1.172-1.777,1.821-2.688a25.5,25.5,0,0,1,4.292-4.6,22.338,22.338,0,0,1,2.2-1.648,10.909,10.909,0,0,1,2.152-1.068,8.338,8.338,0,0,1,3.418-.534,6.006,6.006,0,0,1,.935.13A1.449,1.449,0,0,1,333.6,304.455Z" fill="#354952"/><path d="M307.88,318.184a2.287,2.287,0,0,1-.447.3l-1.279.751-.431.247a1.354,1.354,0,0,1-.553.183.531.531,0,0,1-.342-.08.443.443,0,0,1-.189-.334,1.129,1.129,0,0,1,.239-.638l1.485-2.378.2.186a5.284,5.284,0,0,1-3.431,1.023,1.537,1.537,0,0,1-.459-.079.622.622,0,0,1-.392-.341.551.551,0,0,1,.085-.511,2.14,2.14,0,0,1,.288-.316,10.594,10.594,0,0,0,1.72-2.17,17.863,17.863,0,0,0,1.094-2.326,2.608,2.608,0,0,1-.159.68,9.407,9.407,0,0,1-.761,1.747,10.208,10.208,0,0,1-1.711,2.256c-.188.178-.375.384-.3.543s.348.237.613.239a5.107,5.107,0,0,0,3.251-.968l.6-.442-.4.628c-.541.842-1.051,1.635-1.515,2.359a.95.95,0,0,0-.215.493c.006.143.129.227.291.215a2.6,2.6,0,0,0,.908-.374l1.319-.679A2.283,2.283,0,0,1,307.88,318.184Z" fill="#354952"/><path d="M326.621,331.723a2.266,2.266,0,0,0-2.038-.759,2.06,2.06,0,0,0-1.392.79,1.261,1.261,0,0,0-.053,1.463,1.525,1.525,0,0,0,1.646.357,4.757,4.757,0,0,0,1.564-.984,1.368,1.368,0,0,0,.344-.373.406.406,0,0,0-.016-.456" fill="#e88559"/><path d="M323.415,329.713c.2-.018.247,1.312,1.434,2.221s2.622.718,2.639.9c.021.083-.313.268-.921.3a3.41,3.41,0,0,1-2.2-.68,2.87,2.87,0,0,1-1.116-1.864C323.182,330.042,323.322,329.708,323.415,329.713Z" fill="#1c262b"/><path d="M342.26,419.487l5.427,12.266-26.358,9.867-5.9-13.2Z" fill="#00418b"/><path d="M395.529,494.142l7.211,15.564s18-2.381,19.616.366l-29.438,15.345-12.231-23.791Z" fill="#354952"/><path d="M393.135,513.034a1.369,1.369,0,0,0-.137,1.821,1.318,1.318,0,0,0,1.805.152,1.444,1.444,0,0,0,.135-1.93,1.366,1.366,0,0,0-1.895.051" fill="#d8d8d8"/><path d="M392.917,525.415l-.974-1.895L420.815,509.2a2.53,2.53,0,0,1,1.771.954Z" fill="#1c262b"/><path d="M403.059,509.667c.069.148-.627.585-1.107,1.418-.5.822-.551,1.642-.715,1.652-.149.04-.374-.943.225-1.942S403.022,509.517,403.059,509.667Z" fill="#1c262b"/><path d="M406.852,509.372c.105.124-.4.693-.583,1.562-.208.864.006,1.6-.143,1.662-.125.093-.66-.711-.413-1.787S406.778,509.234,406.852,509.372Z" fill="#1c262b"/><path d="M410.537,512.22c-.117.1-.69-.528-.721-1.517s.49-1.654.614-1.564c.143.078-.082.732-.044,1.544C410.4,511.495,410.675,512.132,410.537,512.22Z" fill="#1c262b"/><path d="M401.007,506.278c.006.164-.765.3-1.562.777-.806.459-1.308,1.061-1.447.975-.138-.063.214-.921,1.161-1.467S401.021,506.127,401.007,506.278Z" fill="#1c262b"/><path d="M399.867,502.714c.033.06-.5.443-1.5.753a7.574,7.574,0,0,1-1.811.313,7.868,7.868,0,0,1-1.091-.019,2.065,2.065,0,0,1-.631-.123.713.713,0,0,1-.461-.742.9.9,0,0,1,.47-.659,2.184,2.184,0,0,1,.6-.207,6.057,6.057,0,0,1,1.093-.153,5.937,5.937,0,0,1,1.84.2c1.019.29,1.533.715,1.5.769-.041.081-.611-.2-1.585-.376a6.71,6.71,0,0,0-1.717-.075,6.242,6.242,0,0,0-.994.172c-.359.077-.63.212-.639.394,0,.069,0,.092.118.151a1.662,1.662,0,0,0,.462.088,8.792,8.792,0,0,0,1.021.051,9.329,9.329,0,0,0,1.728-.18A11.687,11.687,0,0,1,399.867,502.714Z" fill="#1c262b"/><path d="M367.517,519.154l-.912,17.13s17.025,6.321,17.165,9.5l-33.2-.216.325-26.75Z" fill="#354952"/><path d="M356.56,534.73a1.37,1.37,0,0,0-.973,1.546,1.316,1.316,0,0,0,1.524.978,1.444,1.444,0,0,0,1.022-1.642,1.366,1.366,0,0,0-1.7-.842" fill="#d8d8d8"/><path d="M350.573,545.57l.026-2.13,32.217.857a2.533,2.533,0,0,1,1.118,1.671Z" fill="#1c262b"/><path d="M366.906,536.4c-.009.164-.828.224-1.643.736-.827.492-1.255,1.193-1.4,1.126-.15-.035.111-1.009,1.107-1.612S366.944,536.249,366.906,536.4Z" fill="#1c262b"/><path d="M370.4,537.913c.035.159-.679.425-1.247,1.108-.588.666-.741,1.412-.9,1.4-.154.023-.251-.938.471-1.773S370.395,537.757,370.4,537.913Z" fill="#1c262b"/><path d="M372.32,542.155c-.15.032-.363-.79.073-1.679s1.207-1.232,1.274-1.1c.09.137-.415.609-.762,1.344C372.541,541.452,372.482,542.141,372.32,542.155Z" fill="#1c262b"/><path d="M366.679,532.443c-.072.148-.819-.09-1.745-.044-.927.028-1.652.326-1.735.185-.092-.12.621-.714,1.713-.754S366.761,532.316,366.679,532.443Z" fill="#1c262b"/><path d="M367.339,528.761a3.159,3.159,0,0,1-1.678-.038,7.549,7.549,0,0,1-1.747-.569,7.79,7.79,0,0,1-.955-.529,2.063,2.063,0,0,1-.5-.4.713.713,0,0,1-.06-.872.9.9,0,0,1,.723-.362,2.191,2.191,0,0,1,.628.1,6.047,6.047,0,0,1,1.038.376,5.914,5.914,0,0,1,1.53,1.043c.765.733,1.02,1.349.963,1.38-.075.052-.444-.466-1.225-1.074a6.733,6.733,0,0,0-1.483-.87,6.364,6.364,0,0,0-.958-.314c-.354-.1-.656-.107-.749.05-.034.059-.039.083.033.188a1.685,1.685,0,0,0,.368.295,8.766,8.766,0,0,0,.878.522,9.269,9.269,0,0,0,1.612.65A11.615,11.615,0,0,1,367.339,528.761Z" fill="#1c262b"/><path d="M291.6,436.912s66.517-8.327,70.434-8.328a17.085,17.085,0,0,1,16.35,12.424c1.016,4,21.491,61.843,21.491,61.843l-15.1,7.829-22.213-39.469-11.321-19.694L292.9,460.531Z" fill="#005fab"/><path d="M353.986,449.7s9.115,0,14.038,7.293c2.894,4.287,1.877,11.947,1.935,17.729.079,7.872-1.823,55.834-1.823,55.834l-18.646.311-3.906-49.987.231-9.238-37.23-3.028s-3.39-11.285,4.948-20.19C314.605,447.277,353.986,449.7,353.986,449.7Z" fill="#005fab"/><path d="M297.284,420.834s-14.7,22.628-5.685,39.628c4.3,8.1,17.161,8.092,17.161,8.092l13.188-16.515v-27.32Z" fill="#005fab"/><path d="M308.76,468.554a1.488,1.488,0,0,1,.247-.13l.743-.346,2.868-1.3,10.579-4.713,15.71-6.947,9.282-4.091c.813-.342,1.6-.741,2.461-1.036a15.5,15.5,0,0,1,2.649-.677,20.076,20.076,0,0,1,5.558-.048,17.624,17.624,0,0,1,5.351,1.518,9.54,9.54,0,0,1,2.3,1.5A8.6,8.6,0,0,1,368.2,454.4a12,12,0,0,1,1.557,4.979c.073.865.022,1.7.024,2.525s-.017,1.646-.025,2.454c-.074,6.462-.141,12.282-.2,17.177-.069,4.874-.125,8.825-.164,11.58-.028,1.35-.049,2.407-.064,3.148-.011.345-.02.616-.026.818a1.458,1.458,0,0,1-.022.279,1.58,1.58,0,0,1-.016-.279c0-.2-.007-.474-.011-.819,0-.741,0-1.8-.007-3.148.011-2.756.027-6.707.046-11.58.033-4.9.073-10.716.116-17.176q.01-1.213.019-2.454c0-.826.044-1.672-.029-2.495a11.649,11.649,0,0,0-1.517-4.824,8.266,8.266,0,0,0-1.621-2.026,9.191,9.191,0,0,0-2.213-1.442,17.338,17.338,0,0,0-5.237-1.482,19.776,19.776,0,0,0-5.452.045,15.208,15.208,0,0,0-2.583.658c-.83.28-1.635.687-2.442,1.025l-9.29,4.07L323.3,462.308l-10.626,4.6-2.9,1.235-.757.312A1.536,1.536,0,0,1,308.76,468.554Z" fill="#354952"/><line y1="6.679" x2="62.445" transform="translate(298.274 428.584)" fill="#354952"/><path d="M360.719,428.584c.011.095-13.961,1.667-31.2,3.511s-31.233,3.263-31.243,3.168,13.959-1.667,31.206-3.511S360.709,428.489,360.719,428.584Z" fill="#354952"/><path d="M344.278,395.612c1.083-3.442,4.86-16.109,4.012-22.785-.678-5.336-5.453-12.167-6.885-15.814-.674-1.717-6.039-3.488-9.24-4.432l-3.184-3.761-.267,1.836a9.155,9.155,0,0,1-7.6,3.1,16.908,16.908,0,0,1-11.189-5.2c-12.281,3.744-12.242,4.58-14.6,5.519-3.037,1.208,6.051,30.315,6.051,30.315s3.256,18.283.192,24.446c-1.725,3.472-3.72,7.427-5.19,10.655,0,0-4.081,7.785-3.208,7.583,1.837-.425,14.6,2.666,26.573,3.294,22.16,1.162,26.395-2.121,26.395-2.121-1.157-5.666-3.1-25.548-3.1-29.4A21.165,21.165,0,0,1,344.278,395.612Z" fill="#ffab00"/><path d="M329.37,349.728s14.439,3.72,15.852,5.639c3.842,5.221,26.976,40.936,15.619,51.588-7.439,6.978-17.885-7.743-17.885-7.743Z" fill="#ffab00"/><path d="M359.452,391.787a6.081,6.081,0,0,1-1.012-.173l-2.767-.572c-2.353-.475-5.65-1.149-9.431-1.693l.2-.114c-.366.9-.745,1.838-1.133,2.8l-2.693,6.573-.027-.165,4.179,5.013,1.159,1.436a3.07,3.07,0,0,1,.384.532c-.015.012,1.064.488-.468-.466l-1.234-1.377-4.287-4.928-.064-.073.037-.092,2.656-6.588c.39-.957.771-1.892,1.139-2.793l.055-.136.147.022c3.8.564,7.09,1.283,9.434,1.822,1.171.272,2.1.507,2.744.678A6.133,6.133,0,0,1,359.452,391.787Z" fill="#1c262b"/><path d="M345.565,390.107a6.968,6.968,0,0,1,.108-1.171c.1-.811.238-1.881.4-3.175a48.98,48.98,0,0,0,.355-10.5,28.238,28.238,0,0,0-2.985-10.031c-.607-1.211-1.156-2.164-1.539-2.82a8.563,8.563,0,0,1-.576-1.033c.011-.007.079.075.2.237s.291.4.5.722c.422.637,1.009,1.575,1.65,2.779A26.887,26.887,0,0,1,346.8,375.23a44.449,44.449,0,0,1-.465,10.564c-.194,1.34-.385,2.418-.52,3.163A7.159,7.159,0,0,1,345.565,390.107Z" fill="#1c262b"/><g opacity="0.3"><path d="M298.274,416.786,325.6,404.2l-1.849-5.4,4.2-1.6,6.854.893a11.115,11.115,0,0,0,9.326-3.193h0l-17.021-4.308L307.7,394.729l-4.936-14.31-1.216,4.193,1.015,9,.687,9.726Z" fill="#040405"/></g><path d="M295.665,353.929a12.487,12.487,0,0,0-6.993,8.012,31.97,31.97,0,0,0-2.117,6.527c-2.307,10.149-7.282,29.211-7.481,34.264-.36,9.138,6.908,11.73,10.831,12.53S321.1,401.955,321.1,401.955l-5.666-15.4-16.654,6.891s3.8-11.739,4.9-16.54S295.665,353.929,295.665,353.929Z" fill="#ffab00"/><path d="M346.344,387.539a12.44,12.44,0,0,1-.151-4.6,8.335,8.335,0,0,0,.1-2.78,2.124,2.124,0,0,0-1.944-1.8l-1.39,6.691Z" fill="#f7ad8b"/><path d="M345.7,371.834l-4.9,23.649-11.624-.707,3.444-23.394a1.254,1.254,0,0,1,1.243-1.071l10.615.014A1.254,1.254,0,0,1,345.7,371.834Z" fill="#1c262b"/><path d="M332.628,377.977a4.16,4.16,0,0,0,.176-.695c.1-.5.233-1.139.392-1.914.159-.823.345-1.784.55-2.843a3.073,3.073,0,0,1,.084-.385.736.736,0,0,1,.205-.3.723.723,0,0,1,.329-.168,2.069,2.069,0,0,1,.414-.019l1.835-.008c2.517-.014,4.794-.04,6.443-.071l1.952-.049a4.044,4.044,0,0,0,.716-.051,4,4,0,0,0-.716-.044l-1.953-.028c-1.649-.013-3.927-.014-6.443,0l-1.836.012a2.294,2.294,0,0,0-.464.028.96.96,0,0,0-.431.224.982.982,0,0,0-.266.394,3.334,3.334,0,0,0-.09.423c-.185,1.062-.354,2.026-.5,2.852-.128.781-.234,1.429-.316,1.928A4,4,0,0,0,332.628,377.977Z" fill="#354952"/><path d="M338.842,372.818a.575.575,0,0,1,.693-.345.569.569,0,0,1,.413.462.65.65,0,0,1-.32.591.592.592,0,0,1-.661-.064A.544.544,0,0,1,338.842,372.818Z" fill="#fafafa"/><path d="M339.163,379.954c.267.069,6.419,3.244,6.419,3.244l3.21,3.384a6.552,6.552,0,0,1,.218,5.014c-.94,3.055-2.472,4.129-6.009,5l-6.683-1.056-3.377-2.771a2.1,2.1,0,0,1-.67-2.263l.044-.142-.383-.638a1.161,1.161,0,0,1,.059-1.286h0a1.161,1.161,0,0,1,1.621-.25l3.809,2.785,2.619.346.392-.859-3.838-1.994-4.885-3.78a1.435,1.435,0,0,1-.218-2.061h0a1.435,1.435,0,0,1,1.823-.31l4.536,2.667,4.738,2.091-.747-1.881-5.569-4.123S335.834,379.1,339.163,379.954Z" fill="#f7ad8b"/><path d="M338.6,376.711a4.047,4.047,0,0,0-3.412.148c-2.131.882-4.843,2.213-4.843,2.213l-4.081,1.165.481-1.008s4.028.408,3.835-2.52l-2.427.1-2.085-1.07-4.1,3.99-1.546,5.645-4.518,2.34,3.548,9.656,6.375-3.538,7.988-.156,2.926-2.362.324-3.006,2.864-2.917s.364-1.462-.957-1.6-4.5,3.017-4.5,3.017l-3.187.078s-.547-.5-.1-.784,9.844-4.9,10.259-5.936.846-1.712-.087-2a5.214,5.214,0,0,0-2.487.239S339.311,376.937,338.6,376.711Z" fill="#f7ad8b"/><path d="M330.808,382.48a88.2,88.2,0,0,0,8.265-4.121,87.86,87.86,0,0,0-8.265,4.121Z" fill="#e88559"/><path d="M328.913,389.982a1.932,1.932,0,0,0,.479.155c.312.081.765.2,1.336.3a8.912,8.912,0,0,0,2.038.142,5.973,5.973,0,0,0,2.416-.668,10.557,10.557,0,0,0,3.378-2.994c.355-.456.625-.837.808-1.1a1.957,1.957,0,0,0,.262-.429c-.03-.023-.468.541-1.2,1.424a11.3,11.3,0,0,1-3.354,2.886,5.978,5.978,0,0,1-2.322.661,9.621,9.621,0,0,1-1.995-.089C329.62,390.1,328.921,389.942,328.913,389.982Z" fill="#e88559"/><path d="M315.88,387.719a2.1,2.1,0,0,1,.286-.171l.861-.468,3.335-1.768-.038.047,1.515-5.653.008-.028.021-.021,4.085-4.006.066-.065.084.042,2.087,1.065-.068-.015,2.427-.112.15-.007v.141a2.5,2.5,0,0,1-.258,1.314,2.313,2.313,0,0,1-1.005.938,5.492,5.492,0,0,1-2.73.43l.154-.087-.48,1.009-.183-.216,4.079-1.172-.027.01,3.944-1.807a5.212,5.212,0,0,1,4.468-.556l-.033-.014a.7.7,0,0,1,.418.393,1.323,1.323,0,0,1,.1.518,3.519,3.519,0,0,1-.138,1l-.219-.211a7.171,7.171,0,0,1,1.453-.312,2.273,2.273,0,0,1,1.555.279.694.694,0,0,1,.252.416,1.192,1.192,0,0,1-.028.443,5.418,5.418,0,0,1-.266.737l-.146.349a1.006,1.006,0,0,1-.106.2,2.176,2.176,0,0,1-.144.166,5.675,5.675,0,0,1-.619.5,58.752,58.752,0,0,1-5.211,3l-2.589,1.345-1.276.656c-.194.108-.476.226-.5.311-.051.078.069.3.21.428l-.118-.044,3.187-.074-.112.048a19.7,19.7,0,0,1,3.064-2.5,4.913,4.913,0,0,1,.878-.443,1.525,1.525,0,0,1,1.022-.045,1.11,1.11,0,0,1,.732.729,1.947,1.947,0,0,1,.027.993l-.008.039-.031.031-2.87,2.912.04-.086q-.171,1.549-.332,3.005l-.006.056-.044.036-2.934,2.353-.033.027h-.043l-7.988.121.042-.012-4.741,2.583-1.245.664-.321.164a.425.425,0,0,1-.112.048.488.488,0,0,1,.1-.069l.309-.186,1.222-.7,4.7-2.656.019-.011h.023l7.986-.191-.076.028,2.919-2.371-.05.091q.154-1.456.317-3.006l.005-.05.035-.036,2.858-2.923-.039.07c.121-.532,0-1.211-.56-1.351a2.092,2.092,0,0,0-1.636.463,19.413,19.413,0,0,0-3,2.457l-.048.046-.064,0-3.186.081h-.071l-.047-.046a1.287,1.287,0,0,1-.25-.325.566.566,0,0,1-.041-.484.683.683,0,0,1,.336-.309l.318-.168,1.276-.658,2.585-1.346a59.234,59.234,0,0,0,5.172-2.981,5.323,5.323,0,0,0,.575-.458c.035-.041.078-.083.106-.121a.638.638,0,0,0,.068-.134l.146-.352c.177-.44.443-.993.143-1.2a2,2,0,0,0-1.3-.2,6.87,6.87,0,0,0-1.377.3l-.3.1.085-.308a3.194,3.194,0,0,0,.125-.89c0-.291-.1-.542-.284-.6h-.005l-.028-.013a3.549,3.549,0,0,0-2.113-.187,8.178,8.178,0,0,0-2.054.755l-3.932,1.791-.016.007-.011,0-4.082,1.159-.333.1.149-.312.484-1.008.045-.094.109.008a5.208,5.208,0,0,0,2.566-.39,2.019,2.019,0,0,0,.882-.811,2.217,2.217,0,0,0,.229-1.157l.148.134-2.427.1H328.1l-.032-.016-2.081-1.077.15-.023-4.114,3.976.028-.049c-.616,2.2-1.148,4.1-1.577,5.636l-.009.033-.029.015-3.37,1.7-.878.433A2.155,2.155,0,0,1,315.88,387.719Z" fill="#e88559"/><path d="M298.768,412.6a3.026,3.026,0,0,1,.417-.227l1.23-.606,4.624-2.22,15.986-7.557-.085.207c-1.031-2.829-2.145-5.887-3.3-9.051-.812-2.238-1.6-4.422-2.37-6.529l.225.1-16.286,6.838-.017.007-.019,0a14.7,14.7,0,0,0-3.907.871,7.394,7.394,0,0,0-2.536,1.588,4.423,4.423,0,0,0-1.23,2.023.862.862,0,0,1-.046.163.511.511,0,0,1,.013-.17,3.147,3.147,0,0,1,.13-.485,4.64,4.64,0,0,1,1.039-1.623,7.381,7.381,0,0,1,2.558-1.671,14.632,14.632,0,0,1,3.956-.935l-.035.009,16.248-6.928.164-.07.061.168,2.377,6.526c1.149,3.166,2.259,6.225,3.285,9.056l.052.143-.137.063-16.039,7.446c-1.972.9-3.551,1.624-4.665,2.132l-1.252.557A2.884,2.884,0,0,1,298.768,412.6Z" fill="#1c262b"/><path d="M304.327,370.311a20.22,20.22,0,0,1-1.081-1.951c-.653-1.209-1.6-2.852-2.777-4.587s-2.349-3.227-3.229-4.282a19.786,19.786,0,0,1-1.41-1.727c.017-.017.179.123.459.39s.67.666,1.135,1.177a38.752,38.752,0,0,1,6.039,8.917c.3.622.53,1.132.672,1.492A1.986,1.986,0,0,1,304.327,370.311Z" fill="#1c262b"/><path d="M304.984,373.6a3.854,3.854,0,0,1-.186.837c-.144.532-.364,1.3-.644,2.241-.561,1.887-1.363,4.485-2.283,7.344s-1.787,5.438-2.445,7.294c-.33.928-.6,1.676-.806,2.189a3.976,3.976,0,0,1-.346.784,4.159,4.159,0,0,1,.219-.828c.186-.591.421-1.336.7-2.223l2.348-7.322c.918-2.82,1.748-5.372,2.379-7.311.3-.881.549-1.621.748-2.208A4.426,4.426,0,0,1,304.984,373.6Z" fill="#1c262b"/></g><g transform="translate(-82.906 -265.581)"><path d="M226.363,375.5a11.885,11.885,0,0,1-8.457-3.5L205.7,359.791a2.321,2.321,0,0,0-3.209,0L190.23,372.047a11.887,11.887,0,0,1-8.457,3.5h-2.406l15.466,15.466a12.368,12.368,0,0,0,17.491,0L227.835,375.5Z" fill="#005fab"/><path d="M181.773,332.31a11.882,11.882,0,0,1,8.457,3.5l12.256,12.257a2.27,2.27,0,0,0,3.209,0l12.211-12.212a11.886,11.886,0,0,1,8.457-3.5h1.471l-15.51-15.51a12.368,12.368,0,0,0-17.491,0L179.367,332.31Z" fill="#005fab"/><path d="M240.663,345.183l-9.373-9.373a1.774,1.774,0,0,1-.665.135h-4.261a8.421,8.421,0,0,0-5.917,2.451l-12.212,12.212a5.868,5.868,0,0,1-8.288,0L187.69,338.352a8.422,8.422,0,0,0-5.917-2.452h-5.24a1.782,1.782,0,0,1-.629-.127l-9.41,9.41a12.367,12.367,0,0,0,0,17.492l9.409,9.41a1.766,1.766,0,0,1,.63-.128h5.24a8.424,8.424,0,0,0,5.917-2.452l12.256-12.256a6,6,0,0,1,8.289,0l12.212,12.211a8.421,8.421,0,0,0,5.917,2.451h4.261a1.782,1.782,0,0,1,.666.134l9.372-9.372a12.369,12.369,0,0,0,0-17.492Z" fill="#005fab"/></g></svg>