<svg xmlns="http://www.w3.org/2000/svg" width="240" height="240" viewBox="0 0 240 240"><circle cx="115.053" cy="115.053" r="115.053" transform="translate(0 10.115) rotate(-2.52)" fill="#ffac00"/><path d="M258.472,362.525c0-18.759-13.26-29.813-39.478-38.719V284.753c13.22.664,21.112,3.581,25.939,5.839l7.8-16.64c-7.539-3.615-18.185-7.013-33.739-7.463v-20.71H200.172v21.957c-22.581,3.775-36.945,16.865-36.945,33.962s13.962,26.77,36.945,34.861V383.5a75.46,75.46,0,0,1-31.754-9.022l-7.539,15.576c9.006,5.261,24.356,10.3,39.293,10.646v20.3h18.822V399.787C244.722,395.658,258.472,379.01,258.472,362.525Zm-72.8-63.39c0-6.325,4.171-11.246,14.5-13.372v30.745C190.156,311.674,185.67,306.69,185.67,299.135Zm33.324,82.729V343.621c11.036,5.3,16.776,11.584,16.776,20.4C235.77,372.7,229.375,378.97,218.994,381.864Z" transform="translate(-89.315 -212.974)" fill="#ffc630"/><g transform="translate(0.36 0.362)"><path d="M244.787,468.777a119.639,119.639,0,1,1,119.638-119.64A119.775,119.775,0,0,1,244.787,468.777Zm0-230.109A110.47,110.47,0,1,0,355.258,349.137,110.594,110.594,0,0,0,244.787,238.668Z" transform="translate(-125.149 -229.499)" fill="#f99200"/></g></svg>