<svg xmlns="http://www.w3.org/2000/svg" xmlns:xlink="http://www.w3.org/1999/xlink" width="306" height="306" viewBox="0 0 306 306"><defs><clipPath id="a"><circle cx="153" cy="153" r="153" transform="translate(0.342 0.342)" fill="#d3d5fc"/></clipPath></defs><g transform="translate(-0.342 -0.342)"><circle cx="153" cy="153" r="153" transform="translate(0.342 0.342)" fill="#d3d5fc"/><g clip-path="url(#a)"><g transform="translate(-71.289 36.827)"><g transform="translate(242.251 28.343)"><path d="M1038.191,403.723c1.171-8.709,2.06-21.148,2.438-39.2.231-10.967.15-18.136-4.882-22.256-4.756-3.894-12.633-4-17.806-1.581-14.64,6.849-18.581,39.05-14.867,63.04Z" transform="translate(-1001.763 -339.063)" fill="#2e3192"/></g><g transform="translate(158.2 73.2)"><circle cx="14.336" cy="14.336" r="14.336" transform="matrix(0.982, -0.189, 0.189, 0.982, 0, 5.419)" fill="#fb9c98"/></g><g transform="translate(260.297 71.882)"><circle cx="14.336" cy="14.336" r="14.336" transform="matrix(0.95, -0.313, 0.313, 0.95, 0, 8.981)" fill="#fb9c98"/></g><g transform="translate(44.763 180.649)"><path d="M866.972,725.22,730.078,691.66c-53.507,13.648-105.833,14.886-158.68,24.566-9.463,32.964-18.792,74.62-26.833,119.989h344.3C882.427,796.6,874.954,759.507,866.972,725.22Z" transform="translate(-544.565 -691.66)" fill="#9087f4"/></g><g transform="translate(246.704 180.649)"><path d="M1132.538,725.22l-120.465-33.56c1.765,20.979,19.845,50.18,33.868,99.137,3.717,12.983,6.339,24.551,8.13,45.417h100.363C1147.993,796.6,1140.52,759.507,1132.538,725.22Z" transform="translate(-1012.073 -691.66)" fill="#9087f4"/></g><g transform="translate(185.949 98.201)"><path d="M921.4,638.429H902.766a31.344,31.344,0,0,1-31.274-33.437l6.974-104.2h66.657l7.541,104.03A31.344,31.344,0,0,1,921.4,638.429Z" transform="translate(-871.42 -500.789)" fill="#fb9c98"/></g><g transform="translate(189.537 98.201)"><path d="M953.1,545.778l-3.261-44.989H883.183l-3.457,51.661c7.808,9.425,18,15.993,29.815,17C926.433,570.9,942.309,560.632,953.1,545.778Z" transform="translate(-879.726 -500.789)" fill="#f26d6d"/></g><g transform="translate(172.929 20.263)"><path d="M865.67,333.283c-2.295,1.754-19.72,15.481-23.586,38.529-5.134,30.611,14.749,71.123,45.617,73.768,29.537,2.53,56-30.738,57.535-61.764,1.363-27.495-16.56-58.989-41.785-63.02C885.718,317.961,870.407,329.662,865.67,333.283Z" transform="translate(-841.278 -320.357)" fill="#fb9c98"/></g><g transform="translate(172.349 20.263)"><path d="M864.907,333.284c-17.143,13.1-22.124,31.408-23.584,38.528-6.526,31.823,11.039,67.785,30.556,72.265,3.721.853,9.259.965,18.381,1.148,7.426.148,17.306.347,22.424-.715,17.713-3.675,32.611-33.7,31.79-60.693-.777-25.574-15.951-58.892-41.785-63.019C884.956,317.962,869.646,329.662,864.907,333.284Z" transform="translate(-839.936 -320.358)" fill="#fb9c98"/></g><g transform="translate(0 205.214)"><path d="M512.532,748.531A52.789,52.789,0,0,0,474.6,778.818a845.121,845.121,0,0,0-33.661,89.7h103.3Z" transform="translate(-440.937 -748.531)" fill="#ffc5ae"/></g><g transform="translate(347.916 214.523)"><path d="M1303.872,795.985a52.788,52.788,0,0,0-41.052-25.9l-16.435,110.68h100.578A845.087,845.087,0,0,0,1303.872,795.985Z" transform="translate(-1246.385 -770.082)" fill="#ffc5ae"/></g><g transform="translate(136.424)"><path d="M882.16,315.136c6.938-7.593,9.6-20.547,4.835-29-6.782-12.029-27.145-12.2-39.058-12.55a56.45,56.45,0,0,0-8.747.359,103,103,0,0,0-14.746,2.889c-13.524,3.756-23.471-4.981-36.739-3.125-14.319,2-30.664,16.083-30.933,32.037-.274,16.311,16.321,30.6,31.744,33.614,17.06,3.339,20.666-8.135,54.979-14.418C865.037,321,874.3,323.737,882.16,315.136Z" transform="translate(-756.768 -273.447)" fill="#2e3192"/></g></g></g></g><g transform="translate(52.573 19.918)"><g transform="translate(0 146.396)"><path d="M778.512,625.619H730.7a2.224,2.224,0,0,1-2.224-2.224V576.235a2.224,2.224,0,1,1,4.448,0V621.17h45.588a2.224,2.224,0,0,1,0,4.448Z" transform="translate(-728.476 -574.011)" fill="#f95f6a"/></g><g transform="translate(0)"><path d="M730.7,287.354a2.224,2.224,0,0,1-2.224-2.224V237.318a2.224,2.224,0,0,1,2.224-2.224h47.159a2.224,2.224,0,0,1,0,4.448H732.924V285.13A2.224,2.224,0,0,1,730.7,287.354Z" transform="translate(-728.476 -235.094)" fill="#f95f6a"/></g><g transform="translate(145.855)"><path d="M1116.175,286.7a2.224,2.224,0,0,1-2.224-2.224V239.542h-45.588a2.224,2.224,0,0,1,0-4.448h47.812a2.224,2.224,0,0,1,2.224,2.224v47.159A2.224,2.224,0,0,1,1116.175,286.7Z" transform="translate(-1066.139 -235.094)" fill="#f95f6a"/></g><g transform="translate(146.507 145.744)"><path d="M1117.033,624.76h-47.159a2.224,2.224,0,0,1,0-4.448h44.935V574.724a2.224,2.224,0,0,1,4.448,0v47.812A2.224,2.224,0,0,1,1117.033,624.76Z" transform="translate(-1067.649 -572.5)" fill="#f95f6a"/></g></g></svg>