<svg xmlns="http://www.w3.org/2000/svg" width="176" height="100" viewBox="0 0 176 100"><g transform="translate(84.569)"><path d="M330.725,32.6H286.99a12.606,12.606,0,0,0-12.6,12.607V72.372c0,.119.006.237.009.355h-.009v24.5c0,5.492,1.872,9.6,7.363,9.6,8.945,0,9.835-3.988,12.52-9.6,0,0,3.037-11.557,10.972-12.252h25.485a12.606,12.606,0,0,0,12.6-12.607V45.2A12.606,12.606,0,0,0,330.725,32.6Z" transform="translate(-274.385 -32.598)" fill="#0052a0"/><g transform="translate(15.486 5.769)"><path d="M360.164,98.323,351.51,96.8l-.7,3.982,2.305.407c-.73,6.094-6.251,10.832-12.962,10.832-7.018,0-12.74-5.182-13.036-11.678h-3.867c.3,8.493,7.749,15.294,16.9,15.294,8.6,0,15.7-6.005,16.77-13.777l2.541.448Z" transform="translate(-319.792 -77.682)" fill="#f27c00"/><path d="M321.75,47.481v1.555a7.574,7.574,0,0,1,2.047.571,13.788,13.788,0,0,1,2.126,1.24l-1.751,2.381a9.9,9.9,0,0,0-2.086-1.112,5.588,5.588,0,0,0-1.948-.364,4.092,4.092,0,0,0-1.683.364,1.151,1.151,0,0,0-.816,1.053q0,.689,1.269,1.132a13.978,13.978,0,0,0,2.666.64,14.821,14.821,0,0,1,2.391.63,4.323,4.323,0,0,1,1.791,1.279,3.715,3.715,0,0,1,.777,2.5,3.95,3.95,0,0,1-1.279,3.12,5.833,5.833,0,0,1-3.5,1.309v1.575h-3.109V63.621a6.884,6.884,0,0,1-2.057-.64,23.773,23.773,0,0,1-2.253-1.388l1.692-2.44a15.729,15.729,0,0,0,2.46,1.368,5.771,5.771,0,0,0,2.3.5,3.687,3.687,0,0,0,1.407-.246,2.219,2.219,0,0,0,.915-.64,1.284,1.284,0,0,0,.315-.807,1.084,1.084,0,0,0-.8-1,12.424,12.424,0,0,0-2.391-.63,18.907,18.907,0,0,1-2.6-.61,5.445,5.445,0,0,1-2.145-1.3,3.3,3.3,0,0,1-.964-2.5,3.663,3.663,0,0,1,1.151-2.9,5.777,5.777,0,0,1,2.962-1.309V47.481Z" transform="translate(-314.331 -47.481)" fill="#f27c00"/></g></g><g transform="translate(112.185 63.192)"><path d="M351.5,195.587v20.252a26.511,26.511,0,0,0,.39,4.842,8.575,8.575,0,0,0,1.379,3.462,6.043,6.043,0,0,0,2.733,2.083,12.021,12.021,0,0,0,4.451.7,11.1,11.1,0,0,0,4.32-.729,6.338,6.338,0,0,0,2.733-2.134,8.852,8.852,0,0,0,1.432-3.488,24.3,24.3,0,0,0,.416-4.738V195.587h5.882V216.2a27,27,0,0,1-.781,6.794,12.819,12.819,0,0,1-2.525,5.076,11.2,11.2,0,0,1-4.581,3.2,18.837,18.837,0,0,1-6.9,1.119,20.2,20.2,0,0,1-7.053-1.067,10.585,10.585,0,0,1-4.555-3.15,12.737,12.737,0,0,1-2.473-5.1,28.41,28.41,0,0,1-.755-6.872V195.587Z" transform="translate(-345.621 -195.587)" fill="#f27c00"/><path d="M437.058,231.77V201.345a5.757,5.757,0,0,1,5.757-5.758h12.149a11.6,11.6,0,0,1,4.528.833,8.857,8.857,0,0,1,3.279,2.317,10.1,10.1,0,0,1,1.978,3.54,14.547,14.547,0,0,1,.676,4.555,16.354,16.354,0,0,1-.651,4.686,10.935,10.935,0,0,1-1.926,3.774,8.831,8.831,0,0,1-3.253,2.5,10.982,10.982,0,0,1-4.633.911H442.94V231.77ZM442.94,201v12.183h9.994q3.436,0,5.023-1.536t1.588-4.816q0-3.124-1.692-4.478A7.73,7.73,0,0,0,452.934,201Z" transform="translate(-401.611 -195.587)" fill="#f27c00"/></g><g transform="translate(0 70.596)"><path d="M57.8,222.376a6.245,6.245,0,0,1,.981-3.578,7.833,7.833,0,0,1,2.535-2.372,11.467,11.467,0,0,1,3.455-1.329,17.79,17.79,0,0,1,3.741-.409,13.424,13.424,0,0,1,2.637.266,14.66,14.66,0,0,1,2.6.777A12.359,12.359,0,0,1,76.115,217a10.433,10.433,0,0,1,1.963,1.738l-3.148,2.822a7.859,7.859,0,0,0-3.128-1.983,12.036,12.036,0,0,0-3.741-.552,11.359,11.359,0,0,0-1.9.164,7.3,7.3,0,0,0-1.779.532,3.631,3.631,0,0,0-1.329.981,2.284,2.284,0,0,0-.511,1.513,4.491,4.491,0,0,0,.266,1.677,2.72,2.72,0,0,0,.777,1.084,4.537,4.537,0,0,0,1.206.716q.695.287,1.554.572a37.115,37.115,0,0,0,3.966,1.084,17.036,17.036,0,0,1,3.925,1.37,9.3,9.3,0,0,1,3.414,2.7,6.99,6.99,0,0,1,1.288,4.376,7.363,7.363,0,0,1-.981,3.926,7.9,7.9,0,0,1-2.535,2.576,10.554,10.554,0,0,1-3.5,1.391,18.937,18.937,0,0,1-3.9.409,14.993,14.993,0,0,1-3.394-.389,13.323,13.323,0,0,1-3.168-1.165,12.252,12.252,0,0,1-2.719-1.922,10.055,10.055,0,0,1-2.045-2.7l3.8-2a8.285,8.285,0,0,0,3.087,2.862A9.316,9.316,0,0,0,68.06,239.8a12.583,12.583,0,0,0,2.269-.2,7.19,7.19,0,0,0,2-.654,3.985,3.985,0,0,0,1.431-1.206,3,3,0,0,0,.552-1.82,3.836,3.836,0,0,0-.286-1.575,2.7,2.7,0,0,0-.818-1.043,5.362,5.362,0,0,0-1.227-.7q-.7-.285-1.472-.531a36.4,36.4,0,0,0-4.027-1.145,17.638,17.638,0,0,1-3.946-1.39,17.173,17.173,0,0,1-1.942-1.125,5.946,5.946,0,0,1-1.492-1.431,6.62,6.62,0,0,1-.961-1.942A8.916,8.916,0,0,1,57.8,222.376Z" transform="translate(-56.693 -214.688)" fill="#0052a0"/><path d="M121.567,231.258h-2.331v-3.681h2.331v-4.417l4.457-.982v5.4h3.271l-1.145,3.681h-2.126v11q0,2.454,2.535,2.454h1.022v3.517a9.489,9.489,0,0,1-1.124.327,5.363,5.363,0,0,1-1.165.123,7.718,7.718,0,0,1-2.188-.307,4.957,4.957,0,0,1-1.82-.961,4.7,4.7,0,0,1-1.247-1.7,6.089,6.089,0,0,1-.47-2.515Z" transform="translate(-94.99 -219.276)" fill="#0052a0"/><path d="M162.624,256.434a10.557,10.557,0,0,1-4.334-.838,8.932,8.932,0,0,1-3.148-2.29,9.857,9.857,0,0,1-1.922-3.415,13.361,13.361,0,0,1-.654-4.253v-.777a11.563,11.563,0,0,1,.756-4.008,9.213,9.213,0,0,1,2.024-3.169,9.352,9.352,0,0,1,3.149-2.086,10.768,10.768,0,0,1,4.129-.757,10.592,10.592,0,0,1,4.027.757,10.427,10.427,0,0,1,3.251,2.065,9.168,9.168,0,0,1,2.167,3.149,10.1,10.1,0,0,1,.777,3.967v.859a13,13,0,0,1-.675,4.253,9.785,9.785,0,0,1-1.983,3.415,9.31,9.31,0,0,1-3.21,2.29A10.7,10.7,0,0,1,162.624,256.434Zm6.011-10.8v-.818a6.507,6.507,0,0,0-1.431-4.376,5.653,5.653,0,0,0-4.538-1.677q-3.108,0-4.5,1.677a6.7,6.7,0,0,0-1.39,4.417v.941a13.471,13.471,0,0,0,.245,2.679,5.338,5.338,0,0,0,.9,2.106,4.215,4.215,0,0,0,1.8,1.39,7.533,7.533,0,0,0,2.944.491,7.263,7.263,0,0,0,2.944-.511,4.447,4.447,0,0,0,1.819-1.431,5.583,5.583,0,0,0,.94-2.167A13.053,13.053,0,0,0,168.635,245.638Z" transform="translate(-115.399 -227.03)" fill="#0052a0"/><path d="M225.155,238.767a7.334,7.334,0,0,0-1.39.143,10.1,10.1,0,0,0-1.431.389,6.94,6.94,0,0,0-1.329.634,5.013,5.013,0,0,0-1.084.879v15.131h-4.457V240.4a10.28,10.28,0,0,0-.164-1.943,7.5,7.5,0,0,0-.613-1.779l4.007-1.84a11.336,11.336,0,0,1,.572,1.145,7.725,7.725,0,0,1,.409,1.268h.245a7.129,7.129,0,0,1,1.247-.982,10.4,10.4,0,0,1,1.493-.777,8.43,8.43,0,0,1,1.574-.491,7.485,7.485,0,0,1,1.493-.164,10.386,10.386,0,0,1,3.21.47,7.374,7.374,0,0,1,2.514,1.37,6.1,6.1,0,0,1,1.656,2.27,7.823,7.823,0,0,1,.593,3.129v13.864h-4.457V242.979Q229.244,238.767,225.155,238.767Z" transform="translate(-153.439 -227.03)" fill="#0052a0"/><path d="M278.842,247.028a7.436,7.436,0,0,0,.307,2.188,4.066,4.066,0,0,0,1.022,1.717,4.876,4.876,0,0,0,1.9,1.125,9.116,9.116,0,0,0,2.944.409,5.279,5.279,0,0,0,2.412-.45,8.346,8.346,0,0,0,1.84-1.391l3.68,1.513a8.054,8.054,0,0,1-3.475,3.251,10.611,10.611,0,0,1-4.661,1.043q-5.112,0-7.769-2.659t-2.658-7.852v-1.473q0-.491.041-.941a8.465,8.465,0,0,1,.9-3.558,8.854,8.854,0,0,1,2.167-2.74,9.676,9.676,0,0,1,3.108-1.758,11.2,11.2,0,0,1,3.72-.614,10.564,10.564,0,0,1,4.007.715,8.265,8.265,0,0,1,4.845,5.112,12.185,12.185,0,0,1,.634,4.028v2.331Zm0-3.8H289.35a4.336,4.336,0,0,0-.368-1.8,3.9,3.9,0,0,0-1.042-1.39,5.069,5.069,0,0,0-1.594-.9,6.015,6.015,0,0,0-2.024-.327,8.248,8.248,0,0,0-2,.245,5.169,5.169,0,0,0-1.758.8,4.209,4.209,0,0,0-1.247,1.39A3.992,3.992,0,0,0,278.842,243.225Z" transform="translate(-189.993 -227.03)" fill="#0052a0"/></g></svg>